M48
;Layer_Color=9474304
;FILE_FORMAT=4:4
METRIC,LZ
;TYPE=PLATED
T1F00S00C0.5500
T2F00S00C0.7112
T3F00S00C0.9000
;TYPE=NON_PLATED
T4F00S00C2.5400
%
T01
X00561844Y00349758
X00574294
T02
X00091694Y0015367
X00077216Y00175006
X00084074Y00203708
X00161036Y00139192
X00214884Y00129794
X00233172Y00134366
X00251124Y00136452
X00262382Y00169926
X00226096Y0020394
X00242316Y00229767
X00246126Y00244348
X00248412Y00261366
X00153416Y00280924
X00267374Y00191452
X00310896Y00181102
X00309626Y0021082
X00406796Y00210202
X00401124Y00242702
X00408124Y00261202
X00424624Y00274202
X00408944Y00291028
X00372874Y00255702
X00339852Y00299974
X00350124Y00118292
X00393374Y00114702
X00427624Y00159952
X00478624Y00114702
X00488826Y00246202
X00645922Y00272796
X00656844Y0022606
X00589534Y00157988
T03
X0002667Y00049276
Y00074676
X00118816Y00045628
X00144216
X00169616
Y00020228
X00144216
X00118816
X00140874Y00101402
Y00126802
Y00152202
Y00177602
X00028702Y00261112
Y00286512
Y00311912
Y00337312
X00175772Y00344114
X00201172
X00226572
X00251972
X00247146Y00017978
X00272546
X00297946
X00323346
X0031115Y00343408
X0033655
X0036195
X0038735
X00503428Y00345948
X00528828
X00678688Y00237236
Y00211836
X00673608Y00091186
Y00065786
T04
X00073918Y00027376
X00073918Y00345384
X00667374Y00345384
X00667374Y00027376
M30
