G04*
G04 #@! TF.GenerationSoftware,Altium Limited,Altium Designer,21.6.4 (81)*
G04*
G04 Layer_Physical_Order=1*
G04 Layer_Color=255*
%FSLAX44Y44*%
%MOMM*%
G71*
G04*
G04 #@! TF.SameCoordinates,0F59C336-1F8A-43A6-AFB2-A1A9F9B71EC4*
G04*
G04*
G04 #@! TF.FilePolarity,Positive*
G04*
G01*
G75*
%ADD15C,0.2540*%
%ADD18R,0.6000X0.9000*%
%ADD19R,0.9000X0.6000*%
%ADD20R,1.3000X0.7000*%
%ADD21R,0.6000X1.2500*%
%ADD22R,1.2200X0.9100*%
G04:AMPARAMS|DCode=23|XSize=1.97mm|YSize=0.6mm|CornerRadius=0.075mm|HoleSize=0mm|Usage=FLASHONLY|Rotation=270.000|XOffset=0mm|YOffset=0mm|HoleType=Round|Shape=RoundedRectangle|*
%AMROUNDEDRECTD23*
21,1,1.9700,0.4500,0,0,270.0*
21,1,1.8200,0.6000,0,0,270.0*
1,1,0.1500,-0.2250,-0.9100*
1,1,0.1500,-0.2250,0.9100*
1,1,0.1500,0.2250,0.9100*
1,1,0.1500,0.2250,-0.9100*
%
%ADD23ROUNDEDRECTD23*%
%ADD24R,0.7000X1.3000*%
%ADD25R,1.0160X0.8890*%
G04:AMPARAMS|DCode=26|XSize=1.97mm|YSize=0.6mm|CornerRadius=0.075mm|HoleSize=0mm|Usage=FLASHONLY|Rotation=180.000|XOffset=0mm|YOffset=0mm|HoleType=Round|Shape=RoundedRectangle|*
%AMROUNDEDRECTD26*
21,1,1.9700,0.4500,0,0,180.0*
21,1,1.8200,0.6000,0,0,180.0*
1,1,0.1500,-0.9100,0.2250*
1,1,0.1500,0.9100,0.2250*
1,1,0.1500,0.9100,-0.2250*
1,1,0.1500,-0.9100,-0.2250*
%
%ADD26ROUNDEDRECTD26*%
G04:AMPARAMS|DCode=27|XSize=1.475mm|YSize=0.3mm|CornerRadius=0mm|HoleSize=0mm|Usage=FLASHONLY|Rotation=225.000|XOffset=0mm|YOffset=0mm|HoleType=Round|Shape=Rectangle|*
%AMROTATEDRECTD27*
4,1,4,0.4154,0.6276,0.6276,0.4154,-0.4154,-0.6276,-0.6276,-0.4154,0.4154,0.6276,0.0*
%
%ADD27ROTATEDRECTD27*%

G04:AMPARAMS|DCode=28|XSize=1.475mm|YSize=0.3mm|CornerRadius=0mm|HoleSize=0mm|Usage=FLASHONLY|Rotation=315.000|XOffset=0mm|YOffset=0mm|HoleType=Round|Shape=Rectangle|*
%AMROTATEDRECTD28*
4,1,4,-0.6276,0.4154,-0.4154,0.6276,0.6276,-0.4154,0.4154,-0.6276,-0.6276,0.4154,0.0*
%
%ADD28ROTATEDRECTD28*%

G04:AMPARAMS|DCode=29|XSize=3.51mm|YSize=1.58mm|CornerRadius=0.1975mm|HoleSize=0mm|Usage=FLASHONLY|Rotation=180.000|XOffset=0mm|YOffset=0mm|HoleType=Round|Shape=RoundedRectangle|*
%AMROUNDEDRECTD29*
21,1,3.5100,1.1850,0,0,180.0*
21,1,3.1150,1.5800,0,0,180.0*
1,1,0.3950,-1.5575,0.5925*
1,1,0.3950,1.5575,0.5925*
1,1,0.3950,1.5575,-0.5925*
1,1,0.3950,-1.5575,-0.5925*
%
%ADD29ROUNDEDRECTD29*%
%ADD30R,1.9000X1.3000*%
%ADD31R,2.2000X6.0000*%
%ADD32R,1.5000X0.5000*%
%ADD33R,1.5000X0.6000*%
%ADD34R,1.5000X0.6300*%
%ADD35R,1.2000X1.8000*%
%ADD60C,0.3048*%
%ADD61R,1.5000X1.5000*%
%ADD62C,1.5000*%
%ADD63R,1.5000X1.5000*%
%ADD64R,0.9000X0.9000*%
%ADD65C,3.2000*%
%ADD66C,3.2000*%
%ADD67C,1.0160*%
G36*
X610362Y319786D02*
X610616D01*
Y281432D01*
X628142Y263906D01*
Y263652D01*
X665480D01*
X671068Y269240D01*
Y286004D01*
X675894Y290830D01*
X682752D01*
X686308Y287274D01*
Y232156D01*
Y230124D01*
X684276Y226060D01*
X673608Y226060D01*
X652018Y247650D01*
X633222D01*
X598932Y281940D01*
Y321056D01*
X602742Y324866D01*
X602742Y324866D01*
X602742Y324866D01*
X603888Y325120D01*
X605028D01*
X610362Y319786D01*
D02*
G37*
G36*
X338328Y309880D02*
X339598D01*
X346456Y303530D01*
Y297180D01*
X338836Y289560D01*
X309626D01*
X309118Y290068D01*
X308356Y291592D01*
X308610Y291846D01*
Y308864D01*
X310134Y309880D01*
X338328Y309880D01*
D02*
G37*
G36*
X261878Y345892D02*
X258830Y336494D01*
X243590Y333700D01*
X227334Y317444D01*
Y291584D01*
X232804Y287139D01*
Y287044D01*
X232921D01*
X234895Y285440D01*
X272800Y285440D01*
X275358Y282882D01*
X275358Y276568D01*
X273562Y274772D01*
X238002D01*
X224286Y288488D01*
Y320492D01*
X244541Y340747D01*
X244496Y340922D01*
X244098Y341320D01*
Y342463D01*
X241050Y354274D01*
X238861Y360781D01*
X238256Y361386D01*
X170886Y361386D01*
X163551Y354051D01*
X164796Y313433D01*
X185932Y292298D01*
X194568Y283662D01*
Y272232D01*
X184408D01*
X184231Y272305D01*
Y283845D01*
X175778Y292298D01*
X149296Y292298D01*
X123962Y260858D01*
X120400Y242006D01*
X119130Y125928D01*
X131010Y114048D01*
X131220Y114048D01*
X174970D01*
X202720Y141798D01*
X202970D01*
Y143957D01*
X203444Y144666D01*
X203698Y145942D01*
Y168856D01*
X208370Y173528D01*
X239991D01*
X286720Y126798D01*
X301356Y126798D01*
X302606Y128048D01*
X306936Y130600D01*
X308970Y138878D01*
X310386Y140247D01*
X310662Y139971D01*
X323921Y153229D01*
X323641Y153509D01*
X324684Y154552D01*
X325406Y155634D01*
X325442Y155813D01*
X325547Y155939D01*
X346306Y185453D01*
Y191814D01*
X320291Y222461D01*
X326748Y234740D01*
X326890Y235455D01*
X327164Y235730D01*
X327565Y235848D01*
X328429Y235949D01*
X329136Y236025D01*
X329850Y236501D01*
X330472Y236546D01*
X338016Y229003D01*
X341644Y227972D01*
X342103Y228399D01*
X342313Y228190D01*
X345892Y231769D01*
X347156Y231645D01*
X347319Y231401D01*
X347710Y231140D01*
X347939Y229573D01*
X344434Y226068D01*
X344943Y225559D01*
X344519Y225097D01*
X348276Y219910D01*
X365610Y199942D01*
X370560D01*
X370597Y199905D01*
X370944Y199942D01*
X371566Y200631D01*
X373863Y203171D01*
X383362Y212670D01*
X386819Y209213D01*
X419458Y172002D01*
X430634D01*
X437492Y165144D01*
Y159505D01*
X429363Y151376D01*
X426876D01*
X397360Y179815D01*
X385737D01*
X382615Y178036D01*
X371661Y188990D01*
X371612Y189023D01*
X370495Y190156D01*
X366050Y189714D01*
X332844Y155939D01*
X331828Y154222D01*
X330829Y150231D01*
X330292Y149694D01*
X330614Y149372D01*
X330558Y149150D01*
X325672Y138435D01*
X324970Y137733D01*
Y119048D01*
X334720Y109298D01*
X370944Y106216D01*
X372160Y71738D01*
X362689Y62267D01*
X289118Y62196D01*
X287689Y62267D01*
X286324Y62194D01*
X245246Y62173D01*
X244348Y63071D01*
X244348Y75946D01*
X283976D01*
X284086Y76048D01*
X305220D01*
X305599Y75669D01*
X316720Y66048D01*
X353720D01*
X354220Y66048D01*
X355585Y67413D01*
X355592D01*
Y67420D01*
X357470Y69298D01*
X357398Y73543D01*
X358666Y73679D01*
X358746Y73276D01*
X358833Y72836D01*
X359556Y71754D01*
X360638Y71032D01*
X361914Y70778D01*
X363190Y71032D01*
X364271Y71754D01*
X365021Y72505D01*
X365744Y73586D01*
X365998Y74862D01*
X365744Y76138D01*
X365021Y77220D01*
X363940Y77942D01*
X362664Y78196D01*
X361388Y77942D01*
X360306Y77220D01*
X359556Y76469D01*
X358833Y75388D01*
X358733Y74882D01*
X358652Y74476D01*
X357380Y74591D01*
X356974Y98342D01*
X297430Y112354D01*
X243711Y152298D01*
X224620Y152298D01*
X224220Y152698D01*
X162820Y91298D01*
X143114D01*
X141788Y89972D01*
X131220Y84934D01*
X129286Y82999D01*
Y13462D01*
X125730Y9906D01*
X112776D01*
X107442Y15240D01*
Y16002D01*
X106680Y16764D01*
Y106680D01*
X107188D01*
X106408Y119048D01*
X100917Y128048D01*
X69850Y130302D01*
X66294Y126746D01*
Y119634D01*
X64516Y117856D01*
X64262Y118110D01*
X56134D01*
Y119126D01*
X55626Y119634D01*
Y139192D01*
X55880Y139700D01*
X58166Y141986D01*
X62992D01*
X67056Y137922D01*
X67564Y138430D01*
X100917Y144351D01*
X105199Y197010D01*
X103031Y239927D01*
X95250Y247707D01*
X94799Y248158D01*
X24892Y248158D01*
X18288Y254762D01*
X17806Y255269D01*
X18288Y264668D01*
X20066Y266446D01*
X22606Y268986D01*
X23368Y269748D01*
X39878D01*
X48768Y260858D01*
X97738Y264668D01*
X147962Y323864D01*
X158246Y361386D01*
X164850Y367990D01*
X246384D01*
X261878Y345892D01*
D02*
G37*
G36*
X450124Y286452D02*
Y274452D01*
X434624Y274452D01*
X426874Y266702D01*
X419624D01*
X417124Y269202D01*
Y277952D01*
X417374D01*
X420749Y281327D01*
X422874Y282452D01*
X434874Y286452D01*
X450124Y286452D01*
D02*
G37*
G36*
X688086Y215646D02*
Y186182D01*
X684022Y182118D01*
X659130D01*
X651510Y190754D01*
X651510Y201422D01*
X653034Y202946D01*
X662940Y202946D01*
X670052Y210058D01*
Y215646D01*
X674624Y220218D01*
X683514D01*
X688086Y215646D01*
D02*
G37*
G36*
X587973Y360147D02*
X591749Y218202D01*
X592777Y209101D01*
X600421Y201457D01*
X619506Y200406D01*
X619506Y193040D01*
X617474Y191008D01*
X584928Y191042D01*
X578129Y160671D01*
X577668Y153090D01*
X584489Y146269D01*
X644239Y145637D01*
X651256Y152654D01*
X651256Y177038D01*
X666148D01*
X669450Y173736D01*
X683514D01*
X685546Y171704D01*
Y151389D01*
X681185Y84836D01*
X667272Y82804D01*
X633979Y102097D01*
X631040Y102368D01*
X628337Y102618D01*
X624615Y102961D01*
X618190Y105452D01*
X595624D01*
Y111202D01*
X596585Y112163D01*
X611874D01*
X612654Y112318D01*
X612855Y112452D01*
X613124D01*
X613374Y112702D01*
X613624D01*
Y112952D01*
X614124Y113452D01*
Y121952D01*
X613624Y122452D01*
Y122702D01*
X613374D01*
X613124Y122952D01*
X612855D01*
X612654Y123086D01*
X611874Y123241D01*
X595374D01*
Y132202D01*
X588124Y139452D01*
X571874D01*
X561374Y128952D01*
Y116029D01*
X559571Y114226D01*
X548350D01*
X546746Y115830D01*
Y124172D01*
X547844D01*
X571874Y155702D01*
X581624Y218202D01*
Y324866D01*
X559874Y331724D01*
X534416D01*
X513842Y333699D01*
X487172Y337058D01*
X481838Y346920D01*
X403898Y346178D01*
X397256Y333699D01*
X383032D01*
X379349Y335661D01*
X376174Y338836D01*
X374406Y344170D01*
X374406Y353517D01*
X587047Y361017D01*
X587973Y360147D01*
D02*
G37*
G36*
X222124Y215452D02*
X211124Y204452D01*
X195374D01*
X179124Y190190D01*
X169124Y171902D01*
X136374Y168202D01*
X131458Y173118D01*
Y205786D01*
X169124Y243452D01*
X179124D01*
Y262084D01*
X180992Y263952D01*
X222124D01*
Y215452D01*
D02*
G37*
G36*
X596138Y160020D02*
X612140Y158242D01*
X615950D01*
X617728Y157226D01*
Y151130D01*
X617728Y150876D01*
X617347Y150495D01*
X616966Y150114D01*
X604520Y149606D01*
X600710Y152400D01*
X587360Y152797D01*
X584835Y155321D01*
X584090Y157556D01*
X585483Y161966D01*
X589280Y163322D01*
X591820D01*
X596138Y160020D01*
D02*
G37*
G36*
X570124Y299266D02*
X570124Y171952D01*
X547374Y149202D01*
X503124D01*
X496374Y142452D01*
Y127452D01*
X505124D01*
X526124Y106452D01*
X561752Y106452D01*
X563025Y108344D01*
X563310Y108535D01*
X567241Y112465D01*
X567963Y113547D01*
X568217Y114823D01*
Y116062D01*
X571652Y121168D01*
X590374Y120702D01*
X590874Y121202D01*
X611874D01*
Y114202D01*
X596124D01*
X594874Y115452D01*
X592783Y115333D01*
X592404Y115586D01*
X591624Y115741D01*
X589124D01*
X588996Y115716D01*
X588866Y115725D01*
X580164Y114613D01*
X572971Y114202D01*
X572628Y113649D01*
X572240Y113600D01*
X572186Y113581D01*
X572127Y113582D01*
X571810Y113455D01*
X571486Y113347D01*
X571442Y113309D01*
X571388Y113287D01*
X571301Y113202D01*
X570624D01*
Y112298D01*
X570531Y112112D01*
X570527Y112054D01*
X570504Y112001D01*
X569810Y108737D01*
X568124Y102202D01*
X565124Y99202D01*
Y98702D01*
X557471D01*
X551971Y93202D01*
X550624D01*
Y57452D01*
X549374Y56202D01*
X540124D01*
Y69202D01*
X536624Y72702D01*
X532855D01*
X532654Y72836D01*
X531874Y72991D01*
X520874D01*
X520595Y72936D01*
X520311Y72912D01*
X520208Y72859D01*
X520094Y72836D01*
X519893Y72702D01*
X515874D01*
Y58702D01*
X513274Y56102D01*
X507474D01*
X494124Y69452D01*
Y121702D01*
X489624Y126202D01*
X486605D01*
X486404Y126336D01*
X485624Y126491D01*
X457548D01*
X457506Y126483D01*
X457465Y126489D01*
X457118Y126406D01*
X456768Y126336D01*
X456732Y126312D01*
X456691Y126302D01*
X456553Y126202D01*
X453624D01*
Y43202D01*
X466374Y30452D01*
X467624D01*
X525064Y30913D01*
X548624D01*
X548624Y30913D01*
X549404Y31068D01*
X549465Y31109D01*
X552258Y31131D01*
X579433Y56102D01*
X609692Y74676D01*
X683382Y74676D01*
X684280Y73778D01*
X684280Y52578D01*
X657748Y52578D01*
X608261Y14663D01*
X424120Y20768D01*
X396374Y48514D01*
X402024Y94802D01*
X408769Y106452D01*
X414782Y120702D01*
X417717Y146859D01*
X403374Y161202D01*
X391874D01*
X380095Y172981D01*
X380320Y173205D01*
X368882Y184642D01*
X368374Y185702D01*
X370220Y187548D01*
X382441Y175326D01*
X382845Y175731D01*
X382874Y175702D01*
X396374D01*
X428024Y144052D01*
X452874Y143202D01*
Y130702D01*
X453374Y130202D01*
X471124D01*
Y141702D01*
X488874Y159452D01*
X511624D01*
X548624Y196452D01*
Y211452D01*
X548874D01*
X561874Y224452D01*
X561204Y265872D01*
X557404Y269672D01*
X526482Y274477D01*
X520449Y299355D01*
X526363Y309570D01*
X559820D01*
X570124Y299266D01*
D02*
G37*
G36*
X240030Y139192D02*
Y129794D01*
X239776Y129540D01*
X244348Y124968D01*
X249428D01*
Y114554D01*
X234442D01*
Y122174D01*
X227794Y128821D01*
X227076Y129794D01*
X227076D01*
X225806Y131064D01*
Y138938D01*
X228600Y141732D01*
X237490D01*
X240030Y139192D01*
D02*
G37*
G36*
X488374Y121702D02*
X488374Y57458D01*
X503461Y51202D01*
X514874Y51202D01*
X519874Y56202D01*
Y70156D01*
X520874Y70952D01*
X531874D01*
Y60702D01*
X539124Y53452D01*
X552874Y53452D01*
X552874Y90202D01*
X555624Y92952D01*
X566374D01*
X569124Y95702D01*
X572499Y111577D01*
X589124Y113702D01*
X591624D01*
Y75952D01*
X548624Y32952D01*
X470374D01*
X461999Y39077D01*
X457124Y43952D01*
Y65452D01*
Y123080D01*
X456687Y123517D01*
X457548Y124452D01*
X485624D01*
X488374Y121702D01*
D02*
G37*
%LPC*%
G36*
X580794Y356258D02*
X567794D01*
Y343258D01*
X580794D01*
Y356258D01*
D02*
G37*
G36*
X538328Y355448D02*
X519328D01*
Y336448D01*
X538328D01*
Y355448D01*
D02*
G37*
%LPD*%
D15*
X672501Y297597D02*
X680090D01*
X680823Y298330D01*
X658502Y290068D02*
X664972D01*
X672501Y297597D01*
X692404Y225552D02*
Y286766D01*
X686327Y292826D02*
X686344D01*
X692404Y286766D01*
X680823Y298330D02*
X686327Y292826D01*
X678688Y211836D02*
X692404Y225552D01*
X621164Y290576D02*
X621672Y290068D01*
X621037Y290703D02*
X621164Y290576D01*
X621672Y290068D02*
X643502D01*
X656844Y216916D02*
Y226060D01*
X645922Y205994D02*
X656844Y216916D01*
X644712Y274006D02*
X645922Y272796D01*
X643502Y290068D02*
X644712Y288858D01*
Y274006D02*
Y288858D01*
X645922Y169872D02*
Y205994D01*
X621037Y290703D02*
Y314833D01*
X620910Y314960D02*
X621037Y314833D01*
X606037Y290703D02*
X606164Y290576D01*
X606037Y290703D02*
Y314833D01*
X605910Y314960D02*
X606037Y314833D01*
X616434Y211208D02*
X627890Y222664D01*
X614934Y211208D02*
X616434D01*
X627890Y222664D02*
X640080D01*
X636422Y198122D02*
X640080Y201780D01*
Y222664D01*
X636422Y194872D02*
Y198122D01*
X613616Y172822D02*
X616566Y169872D01*
X636422D01*
X610616Y172822D02*
X613616D01*
X277950Y52928D02*
Y56678D01*
X365838Y58166D02*
X377374Y69702D01*
X277950Y56678D02*
X279438Y58166D01*
X365838D01*
X275720Y50698D02*
X277950Y52928D01*
X272796Y50698D02*
X275720D01*
X11430Y133451D02*
Y294640D01*
Y133451D02*
X15143Y129738D01*
X23118D01*
X11430Y294640D02*
X28702Y311912D01*
X230276Y6822D02*
X231764Y5334D01*
X259902D01*
X230276Y6822D02*
Y67818D01*
X259902Y5334D02*
X272546Y17978D01*
X296970Y18954D02*
X297946Y17978D01*
X296926Y50952D02*
X296970Y50908D01*
Y18954D02*
Y50908D01*
X296926Y50952D02*
X297496Y51522D01*
X369194D02*
X382624Y64952D01*
X297496Y51522D02*
X369194D01*
X247146Y17978D02*
X274044Y44876D01*
X274239Y48663D02*
X277831D01*
X274044Y44876D02*
Y48468D01*
X274239Y48663D01*
X241554Y23570D02*
X247146Y17978D01*
X164040Y151682D02*
X172144D01*
X133509Y164317D02*
X151405D01*
X164040Y151682D01*
X304292Y325201D02*
X305780Y326689D01*
X304292Y316926D02*
Y325201D01*
X281074Y293708D02*
X304292Y316926D01*
X305780Y326689D02*
X316529D01*
X327245Y337405D02*
X330547D01*
X336550Y343408D01*
X316529Y326689D02*
X327245Y337405D01*
X263796Y293708D02*
X281074D01*
X189194Y356560D02*
X214126D01*
X187706Y303784D02*
Y355072D01*
X189194Y356560D01*
X187706Y303784D02*
X226314Y265176D01*
X226096Y203940D02*
X268491D01*
X276502Y195928D01*
X77216Y172811D02*
Y175006D01*
X69886Y165481D02*
X77216Y172811D01*
X36405Y165481D02*
X69886D01*
X61218Y185618D02*
X86670D01*
X91694Y153670D02*
Y180594D01*
X86670Y185618D02*
X91694Y180594D01*
X23118Y178768D02*
X36405Y165481D01*
X309626Y210820D02*
X322326Y198120D01*
X314817Y149400D02*
X322326Y156910D01*
Y198120D01*
X289332Y202999D02*
X301282D01*
X309103Y210820D02*
X309626D01*
X301282Y202999D02*
X309103Y210820D01*
X283322Y209009D02*
X289332Y202999D01*
X314817Y149075D02*
Y149400D01*
X346932Y289274D02*
X353568Y295910D01*
Y305308D01*
X340162Y318714D02*
X353568Y305308D01*
X346932Y252227D02*
Y289274D01*
X339396Y244690D02*
X346932Y252227D01*
X319282Y318714D02*
X340162D01*
X339396Y244365D02*
Y244690D01*
X248412Y261366D02*
X272490D01*
X294664Y239191D01*
X295669Y232018D02*
X300675Y227012D01*
X295669Y232018D02*
X295669Y232018D01*
X294664Y233022D02*
Y239191D01*
X300675Y226687D02*
Y227012D01*
X294664Y233022D02*
X295669Y232018D01*
X246126Y244348D02*
X275942D01*
X278649Y241642D01*
Y241642D02*
Y241642D01*
Y241642D02*
X297139Y223151D01*
X283452Y229767D02*
X293603Y219616D01*
X242316Y229767D02*
X283452D01*
X230854Y222536D02*
X235204Y218186D01*
X260350D01*
X289743Y216080D02*
X290068D01*
X282728Y223095D02*
X289743Y216080D01*
X265259Y223095D02*
X282728D01*
X260350Y218186D02*
X265259Y223095D01*
X233680Y213106D02*
X264922D01*
X226314Y220472D02*
X233680Y213106D01*
X270371Y218555D02*
X280197D01*
X264922Y213106D02*
X270371Y218555D01*
X286207Y212545D02*
X286532D01*
X280197Y218555D02*
X286207Y212545D01*
X230854Y222536D02*
Y267494D01*
X201172Y297176D02*
X230854Y267494D01*
X226314Y220472D02*
Y265176D01*
X35818Y185618D02*
Y192468D01*
Y185618D02*
X48518D01*
Y192468D01*
X59758Y203708D01*
X84074D01*
X276502Y195928D02*
X283018D01*
X296078Y182868D01*
Y180159D02*
Y182868D01*
X290068Y174149D02*
X296078Y180159D01*
X290068Y173824D02*
Y174149D01*
X420364Y243062D02*
X420364D01*
X417364D02*
X420364D01*
X420364D02*
X441605Y264303D01*
X455819D01*
X459994Y268478D02*
Y280032D01*
X455819Y264303D02*
X459994Y268478D01*
X152654Y280162D02*
X153416Y280924D01*
X152654Y268672D02*
Y280162D01*
Y268672D02*
X166302Y255024D01*
X151940Y141136D02*
X159092D01*
X140874Y152202D02*
X151940Y141136D01*
X159092D02*
X161036Y139192D01*
X277967Y169926D02*
X287150Y160743D01*
X262382Y169926D02*
X277967D01*
X23118Y178768D02*
Y185618D01*
X296814Y166753D02*
X297139D01*
X290804Y160743D02*
X296814Y166753D01*
X287150Y160743D02*
X290804D01*
X174632Y75184D02*
Y76684D01*
X214884Y116936D01*
Y129794D01*
X144216Y58268D02*
X159632Y73684D01*
X144216Y45628D02*
Y58268D01*
X159632Y73684D02*
Y75184D01*
X28002Y106068D02*
X35818Y113884D01*
X28002Y103068D02*
Y106068D01*
X35818Y113884D02*
Y129738D01*
X28002Y76008D02*
Y103068D01*
X26670Y74676D02*
X28002Y76008D01*
X26670Y49276D02*
X47002Y69608D01*
Y103068D01*
X47760Y128980D02*
X48518Y129738D01*
X47760Y103826D02*
Y128980D01*
X47002Y103068D02*
X47760Y103826D01*
X332482Y343972D02*
X334866Y346356D01*
X263402Y293314D02*
X263796Y293708D01*
X263402Y306014D02*
X265132Y307744D01*
X275486D02*
X311150Y343408D01*
X265132Y307744D02*
X275486D01*
X263017Y292929D02*
X263402Y293314D01*
X288119Y130452D02*
X298492D01*
X241709Y176862D02*
X288119Y130452D01*
X206989Y176862D02*
X241709D01*
X308952Y171495D02*
Y179158D01*
X300675Y163217D02*
X308952Y171495D01*
Y179158D02*
X310896Y181102D01*
X282997Y209009D02*
X283322D01*
X319282Y253928D02*
Y280614D01*
X314198Y248844D02*
X319282Y253928D01*
X314198Y248519D02*
Y248844D01*
Y248519D02*
X318352Y244365D01*
X256552Y306014D02*
X263402D01*
X171624Y252202D02*
Y253702D01*
X171624D02*
Y274084D01*
X174114Y276574D01*
Y278074D01*
X201172Y297176D02*
Y344114D01*
X214126Y356560D02*
X226572Y344114D01*
X241304Y292544D02*
X241689Y292929D01*
X263017D01*
X254822Y307744D02*
Y308336D01*
Y307744D02*
X256552Y306014D01*
X241304Y311544D02*
X251614D01*
X254822Y308336D01*
X406344Y232042D02*
X417364Y243062D01*
X303888Y230222D02*
X304210D01*
X311281Y237294D02*
Y237619D01*
X170302Y255024D02*
X170874Y254452D01*
X394340Y291536D02*
X408436D01*
X408944Y291028D01*
X360815Y258011D02*
X394340Y291536D01*
X360815Y237499D02*
Y258011D01*
X353538Y230222D02*
X360815Y237499D01*
X256604Y95347D02*
X264789Y87162D01*
X256604Y95347D02*
Y98714D01*
X255116Y100202D02*
X256604Y98714D01*
X241874Y100202D02*
X255116D01*
X323164Y87162D02*
X335624Y74702D01*
X264789Y87162D02*
X323164D01*
X349677Y233758D02*
X350002D01*
X368405Y223876D02*
X368518D01*
X368874Y250702D02*
X372874Y254702D01*
X368518Y223876D02*
X397504Y252862D01*
X367680Y216080D02*
X371884Y220284D01*
X357073Y226687D02*
X368874Y238488D01*
X388948Y237122D02*
X392795D01*
X364144Y219616D02*
X368405Y223876D01*
X398375Y242702D02*
X401124Y242702D01*
X368874Y238488D02*
X368874Y250702D01*
X392795Y237122D02*
X398375Y242702D01*
X372874Y254702D02*
Y255702D01*
X372110Y220284D02*
X388948Y237122D01*
X405844Y261202D02*
X408124D01*
X371884Y220284D02*
X372110D01*
X397504Y252862D02*
X405844Y261202D01*
X267374Y191452D02*
X269318Y189508D01*
X274384D01*
X279461Y184430D01*
X304210Y159682D02*
X304210D01*
X339396Y145539D02*
X350124Y134811D01*
X339396Y145539D02*
Y145539D01*
X350124Y118292D02*
Y134811D01*
X364144Y170288D02*
X364470D01*
X370593Y164278D02*
X377919Y156952D01*
X370480Y164278D02*
X370593D01*
X377919Y156952D02*
X401874D01*
X364470Y170288D02*
X370480Y164278D01*
X357074Y162892D02*
X362079Y157886D01*
X377374Y69702D02*
Y142478D01*
X363083Y156769D02*
X377374Y142478D01*
X363083Y156769D02*
Y156882D01*
X362079Y157886D02*
X363083Y156882D01*
X357074Y162892D02*
Y163217D01*
X362079Y157886D02*
Y157886D01*
X377565Y218555D02*
X391052Y232042D01*
X371216Y212545D02*
X371541D01*
X376546Y217550D01*
X376546D02*
X377551Y218555D01*
X376546Y217550D02*
X376546D01*
X377551Y218555D02*
X377565D01*
X525624Y62452D02*
X526124D01*
X525394Y61722D02*
Y62222D01*
X525624Y62452D01*
X277874Y91702D02*
X348774D01*
X269374Y100202D02*
X277874Y91702D01*
X261144Y121432D02*
X263374Y119202D01*
X261144Y121432D02*
Y122432D01*
X263374Y119202D02*
X266374D01*
X253068Y130508D02*
X261144Y122432D01*
X253068Y130508D02*
Y134508D01*
X251124Y136452D02*
X253068Y134508D01*
X374296Y241926D02*
X403731Y271362D01*
X374296Y236838D02*
Y241926D01*
X426256Y293702D02*
X488874D01*
X403731Y271362D02*
X403916D01*
X426256Y293702D01*
X360609Y223151D02*
X374296Y236838D01*
X391052Y232042D02*
X406344D01*
X424624Y274202D02*
X427332D01*
X166302Y255024D02*
X170302D01*
X488826Y217654D02*
Y246202D01*
X298492Y130452D02*
X302534Y134494D01*
Y143750D01*
X304936Y146152D01*
X304880Y146209D02*
X311281Y152611D01*
X200364Y145942D02*
Y170237D01*
X206989Y176862D01*
X181224Y126802D02*
X200364Y145942D01*
X140874Y126802D02*
X181224D01*
X128124Y208702D02*
X171624Y252202D01*
X128124Y169702D02*
X133509Y164317D01*
X128124Y169702D02*
Y208702D01*
X176874Y143952D02*
Y146952D01*
X172144Y151682D02*
X176874Y146952D01*
X488874Y198702D02*
Y217702D01*
X408740Y201836D02*
Y208258D01*
Y201836D02*
X417874Y192702D01*
X406796Y210202D02*
X408740Y208258D01*
X417874Y192702D02*
X423874D01*
X335624Y74702D02*
X349274D01*
X266374Y100202D02*
X269374D01*
X554124Y231202D02*
Y232702D01*
X539624Y205702D02*
Y216702D01*
X554124Y231202D01*
X360609Y166753D02*
X382624Y144738D01*
Y64952D02*
Y144738D01*
X393374Y114702D02*
X393749Y115077D01*
Y133327D02*
X394124Y133702D01*
X393749Y115077D02*
Y133327D01*
X409124Y133702D02*
Y149702D01*
X401874Y156952D02*
X409124Y149702D01*
X464124Y115452D02*
X464874Y114702D01*
X539124Y232702D02*
Y254952D01*
X542874Y260202D02*
X544374D01*
X541144Y258472D02*
X542874Y260202D01*
X541144Y256972D02*
Y258472D01*
X539124Y254952D02*
X541144Y256972D01*
X488874Y217702D02*
X503874Y232702D01*
X539124D01*
X538296Y267012D02*
X550452D01*
X536256Y264972D02*
X538296Y267012D01*
X554124Y232702D02*
Y263340D01*
X498604Y264972D02*
X536256D01*
X550452Y267012D02*
X554124Y263340D01*
X488874Y274702D02*
X498604Y264972D01*
X488874Y274702D02*
Y293702D01*
X508214Y134202D02*
Y137202D01*
Y134202D02*
X531524Y110892D01*
X560952D01*
X564883Y114823D01*
Y122771D01*
X568814Y126702D01*
X580124D01*
X464499Y95077D02*
X464874Y94702D01*
X462874Y137202D02*
Y153702D01*
X423874Y192702D02*
X462874Y153702D01*
X585124Y87452D02*
Y107472D01*
X583894Y108701D02*
X585124Y107472D01*
X580124Y108701D02*
X583894D01*
X560874Y82452D02*
Y83952D01*
X560249Y81827D02*
X560874Y82452D01*
X526124Y60952D02*
Y62452D01*
Y60952D02*
X527854Y59222D01*
X470569Y52778D02*
X477146Y46202D01*
X361914Y74112D02*
X362664Y74862D01*
D18*
X189114Y278074D02*
D03*
X174114D02*
D03*
X605910Y314960D02*
D03*
X620910D02*
D03*
X643502Y290068D02*
D03*
X658502D02*
D03*
X621164Y290576D02*
D03*
X606164D02*
D03*
X539124Y232702D02*
D03*
X554124D02*
D03*
X174632Y75184D02*
D03*
X159632D02*
D03*
X394124Y133702D02*
D03*
X409124D02*
D03*
X545874Y82452D02*
D03*
X560874D02*
D03*
X561374Y60702D02*
D03*
X546374D02*
D03*
X186624Y253702D02*
D03*
X171624D02*
D03*
X462874Y137202D02*
D03*
X447874D02*
D03*
X444994Y280032D02*
D03*
X459994D02*
D03*
X539624Y205702D02*
D03*
X554624D02*
D03*
X526124Y60452D02*
D03*
X511124D02*
D03*
X449124Y115452D02*
D03*
X464124D02*
D03*
X464874Y94702D02*
D03*
X449874D02*
D03*
D19*
X679323Y298330D02*
D03*
Y283330D02*
D03*
X614934Y211208D02*
D03*
Y196208D02*
D03*
X554874Y117702D02*
D03*
Y102702D02*
D03*
X544374Y275202D02*
D03*
Y260202D02*
D03*
D20*
X676402Y167444D02*
D03*
Y186444D02*
D03*
X610616Y153822D02*
D03*
Y172822D02*
D03*
X296926Y50952D02*
D03*
Y69952D02*
D03*
X272796Y50698D02*
D03*
Y69698D02*
D03*
X241304Y311544D02*
D03*
Y292544D02*
D03*
X266374Y100202D02*
D03*
Y119202D02*
D03*
X241874Y100202D02*
D03*
Y119202D02*
D03*
D21*
X636422Y194872D02*
D03*
X655422D02*
D03*
Y169872D02*
D03*
X645922D02*
D03*
X636422D02*
D03*
D22*
X640080Y255364D02*
D03*
Y222664D02*
D03*
D23*
X61218Y129738D02*
D03*
X48518D02*
D03*
X35818D02*
D03*
X23118D02*
D03*
Y185618D02*
D03*
X35818D02*
D03*
X48518D02*
D03*
X61218D02*
D03*
D24*
X28002Y103068D02*
D03*
X47002D02*
D03*
X249276Y67818D02*
D03*
X230276D02*
D03*
X489214Y137202D02*
D03*
X508214D02*
D03*
D25*
X348766Y91892D02*
D03*
X363966D02*
D03*
X348512Y73858D02*
D03*
X363712D02*
D03*
D26*
X263402Y280614D02*
D03*
Y293314D02*
D03*
Y306014D02*
D03*
Y318714D02*
D03*
X319282D02*
D03*
Y306014D02*
D03*
Y293314D02*
D03*
Y280614D02*
D03*
D27*
X378287Y205474D02*
D03*
X374751Y209009D02*
D03*
X371216Y212545D02*
D03*
X367680Y216080D02*
D03*
X364145Y219616D02*
D03*
X360609Y223151D02*
D03*
X357073Y226687D02*
D03*
X353538Y230222D02*
D03*
X350002Y233758D02*
D03*
X346467Y237294D02*
D03*
X342931Y240829D02*
D03*
X339396Y244365D02*
D03*
X279461Y184430D02*
D03*
X282997Y180895D02*
D03*
X286532Y177359D02*
D03*
X290068Y173824D02*
D03*
X293603Y170288D02*
D03*
X297139Y166753D02*
D03*
X300675Y163217D02*
D03*
X304210Y159682D02*
D03*
X307746Y156146D02*
D03*
X311281Y152611D02*
D03*
X314817Y149075D02*
D03*
X318352Y145539D02*
D03*
D28*
Y244365D02*
D03*
X314817Y240829D02*
D03*
X311281Y237294D02*
D03*
X307746Y233758D02*
D03*
X304210Y230222D02*
D03*
X300675Y226687D02*
D03*
X297139Y223151D02*
D03*
X293603Y219616D02*
D03*
X290068Y216080D02*
D03*
X286532Y212545D02*
D03*
X282997Y209009D02*
D03*
X279461Y205474D02*
D03*
X339396Y145539D02*
D03*
X342931Y149075D02*
D03*
X346467Y152611D02*
D03*
X350002Y156146D02*
D03*
X353538Y159682D02*
D03*
X357073Y163217D02*
D03*
X360609Y166753D02*
D03*
X364145Y170288D02*
D03*
X367680Y173824D02*
D03*
X371216Y177359D02*
D03*
X374751Y180895D02*
D03*
X378287Y184430D02*
D03*
D29*
X478124Y46952D02*
D03*
X424124D02*
D03*
D30*
X420364Y243062D02*
D03*
X420874Y192702D02*
D03*
X452874D02*
D03*
X452874Y247702D02*
D03*
D31*
X488874Y198702D02*
D03*
Y293702D02*
D03*
D32*
X580124Y108702D02*
D03*
Y126702D02*
D03*
D33*
X604124Y108702D02*
D03*
Y117702D02*
D03*
D34*
Y126702D02*
D03*
D35*
X176874Y221452D02*
D03*
Y143952D02*
D03*
D60*
X319282Y293314D02*
Y294790D01*
X290830Y360680D02*
X346710D01*
X265986Y318714D02*
X267462Y320190D01*
Y337312D01*
X290830Y360680D01*
X263402Y318714D02*
X265986D01*
X346710Y360680D02*
X361950Y345440D01*
Y343408D02*
Y345440D01*
D61*
X678688Y237236D02*
D03*
X673608Y65786D02*
D03*
X26670Y49276D02*
D03*
Y74676D02*
D03*
X28702Y337312D02*
D03*
Y311912D02*
D03*
Y286512D02*
D03*
Y261112D02*
D03*
X140874Y101402D02*
D03*
Y126802D02*
D03*
Y152202D02*
D03*
Y177602D02*
D03*
D62*
X678688Y211836D02*
D03*
X673608Y91186D02*
D03*
D63*
X503428Y345948D02*
D03*
X528828D02*
D03*
X251972Y344114D02*
D03*
X226572D02*
D03*
X201172D02*
D03*
X175772D02*
D03*
X311150Y343408D02*
D03*
X336550D02*
D03*
X361950D02*
D03*
X387350D02*
D03*
X323346Y17978D02*
D03*
X297946D02*
D03*
X272546D02*
D03*
X247146D02*
D03*
X169616Y45628D02*
D03*
Y20228D02*
D03*
X144216Y45628D02*
D03*
Y20228D02*
D03*
X118816Y45628D02*
D03*
Y20228D02*
D03*
D64*
X561844Y349758D02*
D03*
X574294D02*
D03*
D65*
X73918Y345384D02*
D03*
X667374Y27376D02*
D03*
X667374Y345384D02*
D03*
D66*
X73918Y27376D02*
D03*
D67*
X656844Y226060D02*
D03*
X645922Y272796D02*
D03*
X589534Y157988D02*
D03*
X478624Y114702D02*
D03*
X226096Y203940D02*
D03*
X77216Y175006D02*
D03*
X309626Y210820D02*
D03*
X339852Y299974D02*
D03*
X248412Y261366D02*
D03*
X246126Y244348D02*
D03*
X242316Y229767D02*
D03*
X84074Y203708D02*
D03*
X153416Y280924D02*
D03*
X91694Y153670D02*
D03*
X161036Y139192D02*
D03*
X262382Y169926D02*
D03*
X214884Y129794D02*
D03*
X310896Y181102D02*
D03*
X267374Y191452D02*
D03*
X408944Y291028D02*
D03*
X350124Y118292D02*
D03*
X372874Y255702D02*
D03*
X427624Y159952D02*
D03*
X408124Y261202D02*
D03*
X401124Y242702D02*
D03*
X251124Y136452D02*
D03*
X424624Y274202D02*
D03*
X233172Y134366D02*
D03*
X488826Y246202D02*
D03*
X406796Y210202D02*
D03*
X393374Y114702D02*
D03*
M02*
