G04*
G04 #@! TF.GenerationSoftware,Altium Limited,Altium Designer,21.6.4 (81)*
G04*
G04 Layer_Color=16711935*
%FSLAX44Y44*%
%MOMM*%
G71*
G04*
G04 #@! TF.SameCoordinates,0F59C336-1F8A-43A6-AFB2-A1A9F9B71EC4*
G04*
G04*
G04 #@! TF.FilePolarity,Negative*
G04*
G01*
G75*
%ADD54R,1.7032X1.7032*%
%ADD55C,1.7032*%
%ADD56R,1.7032X1.7032*%
%ADD57R,1.1032X1.1032*%
%ADD58C,3.4032*%
%ADD59C,3.4032*%
D54*
X678688Y237236D02*
D03*
X673608Y65786D02*
D03*
X26670Y49276D02*
D03*
Y74676D02*
D03*
X28702Y337312D02*
D03*
Y311912D02*
D03*
Y286512D02*
D03*
Y261112D02*
D03*
X140874Y101402D02*
D03*
Y126802D02*
D03*
Y152202D02*
D03*
Y177602D02*
D03*
D55*
X678688Y211836D02*
D03*
X673608Y91186D02*
D03*
D56*
X503428Y345948D02*
D03*
X528828D02*
D03*
X251972Y344114D02*
D03*
X226572D02*
D03*
X201172D02*
D03*
X175772D02*
D03*
X311150Y343408D02*
D03*
X336550D02*
D03*
X361950D02*
D03*
X387350D02*
D03*
X323346Y17978D02*
D03*
X297946D02*
D03*
X272546D02*
D03*
X247146D02*
D03*
X169616Y45628D02*
D03*
Y20228D02*
D03*
X144216Y45628D02*
D03*
Y20228D02*
D03*
X118816Y45628D02*
D03*
Y20228D02*
D03*
D57*
X561844Y349758D02*
D03*
X574294D02*
D03*
D58*
X73918Y345384D02*
D03*
X667374Y27376D02*
D03*
X667374Y345384D02*
D03*
D59*
X73918Y27376D02*
D03*
M02*
