G04*
G04 #@! TF.GenerationSoftware,Altium Limited,Altium Designer,21.6.4 (81)*
G04*
G04 Layer_Color=65535*
%FSLAX44Y44*%
%MOMM*%
G71*
G04*
G04 #@! TF.SameCoordinates,0F59C336-1F8A-43A6-AFB2-A1A9F9B71EC4*
G04*
G04*
G04 #@! TF.FilePolarity,Positive*
G04*
G01*
G75*
%ADD10C,0.2000*%
%ADD11C,0.2500*%
%ADD12C,0.1270*%
%ADD13C,0.0762*%
%ADD14C,0.1524*%
%ADD15C,0.2540*%
%ADD16C,0.2032*%
%ADD17C,0.1000*%
G36*
X632074Y242014D02*
Y248021D01*
X648080D01*
Y242014D01*
X632074D01*
D02*
G37*
D10*
X94238Y345384D02*
G03*
X94238Y345384I-20320J0D01*
G01*
X76188Y189428D02*
G03*
X76188Y189428I-1000J0D01*
G01*
X687694Y27376D02*
G03*
X687694Y27376I-20320J0D01*
G01*
X94238Y27376D02*
G03*
X94238Y27376I-20320J0D01*
G01*
X687694Y345384D02*
G03*
X687694Y345384I-20320J0D01*
G01*
X324092Y266644D02*
G03*
X324092Y266644I-1000J0D01*
G01*
X492764Y62192D02*
G03*
X492764Y62192I-1000J0D01*
G01*
X432938Y259572D02*
G03*
X440938Y259572I4000J0D01*
G01*
X166882Y269692D02*
Y286202D01*
X196092D01*
Y269692D02*
Y286202D01*
X166882Y269692D02*
X196092D01*
X665988Y199136D02*
X691388D01*
X665988D02*
Y249936D01*
X691388D01*
Y199136D02*
Y249936D01*
X670941Y276606D02*
Y305054D01*
Y276606D02*
X687451D01*
Y305054D01*
X670941D02*
X687451D01*
X627634Y306832D02*
Y323342D01*
X599186Y306832D02*
X627634D01*
X599186D02*
Y323342D01*
X627634D01*
X665734Y281940D02*
Y298450D01*
X636524Y281940D02*
X665734D01*
X636524D02*
Y298450D01*
X665734D01*
X599186Y298958D02*
X628396D01*
X599186Y282448D02*
Y298958D01*
Y282448D02*
X628396D01*
Y298958D01*
X666242Y193454D02*
X686562D01*
Y160434D02*
Y193454D01*
X666242Y160434D02*
X686562D01*
X666242D02*
Y193454D01*
X630922Y163622D02*
Y176122D01*
Y179622D02*
X660922D01*
Y185122D01*
X630922D02*
X660922D01*
X630922Y179622D02*
Y185122D01*
X606806Y188976D02*
X623316D01*
X606806D02*
Y218186D01*
X623316D01*
Y188976D02*
Y218186D01*
X600456Y181102D02*
X620776D01*
Y145542D02*
Y181102D01*
X600456Y145542D02*
X620776D01*
X600456D02*
Y181102D01*
X660908Y103886D02*
X686308D01*
Y53086D02*
Y103886D01*
X660908Y53086D02*
X686308D01*
X660908D02*
Y103886D01*
X307086Y42672D02*
Y78232D01*
X286766D02*
X307086D01*
X286766Y42672D02*
Y78232D01*
Y42672D02*
X307086D01*
X282956Y42418D02*
Y77978D01*
X262636D02*
X282956D01*
X262636Y42418D02*
Y77978D01*
Y42418D02*
X282956D01*
X490728Y333248D02*
X541528D01*
Y358648D01*
X490728D02*
X541528D01*
X490728Y333248D02*
Y358648D01*
X39370Y36576D02*
Y87376D01*
X13970D02*
X39370D01*
X13970Y36576D02*
Y87376D01*
Y36576D02*
X39370D01*
X161802Y356814D02*
X263402D01*
X161802Y331414D02*
Y356814D01*
X263402Y331414D02*
Y356814D01*
X161802Y331414D02*
X263402D01*
X299720Y330708D02*
X401320D01*
Y356108D01*
X299720Y330708D02*
Y356108D01*
X401320D01*
X55122Y92908D02*
Y113228D01*
X19562Y92908D02*
X55122D01*
X19562D02*
Y113228D01*
X55122D01*
X16002Y247142D02*
Y348742D01*
Y247142D02*
X41402D01*
X16002Y348742D02*
X41402D01*
Y247142D02*
Y348742D01*
X231144Y284424D02*
X251464D01*
X231144D02*
Y319984D01*
X251464D01*
Y284424D02*
Y319984D01*
X221996Y57658D02*
Y77978D01*
X257556D01*
Y57658D02*
Y77978D01*
X221996Y57658D02*
X257556D01*
X235716Y30678D02*
X337316D01*
X235716Y5278D02*
Y30678D01*
X337316Y5278D02*
Y30678D01*
X235716Y5278D02*
X337316D01*
X507924Y162382D02*
Y330022D01*
X469824D02*
X507924D01*
X469824Y162382D02*
Y330022D01*
Y162382D02*
X507924D01*
X165444Y130632D02*
X187034D01*
X165444D02*
Y234772D01*
X187034D01*
Y130632D02*
Y234772D01*
X256214Y127482D02*
X276534D01*
Y91922D02*
Y127482D01*
X256214Y91922D02*
X276534D01*
X256214D02*
Y127482D01*
X231714D02*
X252034D01*
Y91922D02*
Y127482D01*
X231714Y91922D02*
X252034D01*
X231714D02*
Y127482D01*
X531130Y224320D02*
X561864D01*
Y240830D01*
X531130D02*
X561864D01*
X531130Y224320D02*
Y240830D01*
X152400Y66802D02*
Y83312D01*
X181610D01*
Y66802D02*
Y83312D01*
X152400Y66802D02*
X181610D01*
X416356Y125574D02*
Y142084D01*
X387146Y125574D02*
X416356D01*
X387146D02*
Y142084D01*
X416356D01*
X153574Y89972D02*
Y191572D01*
X128174D02*
X153574D01*
X128174Y89972D02*
X153574D01*
X128174D02*
Y191572D01*
X133633Y7528D02*
X182316D01*
X106116D02*
X182316D01*
X106116Y58328D02*
X182316D01*
X106116Y7528D02*
Y58328D01*
X182316Y7528D02*
Y58328D01*
X481348Y127042D02*
X515892D01*
Y147362D01*
X481348D02*
X515892D01*
X481348Y127042D02*
Y147362D01*
X539150Y74070D02*
X567598D01*
Y90580D01*
X539150D02*
X567598D01*
X539150Y74070D02*
Y90580D01*
X539396Y52320D02*
Y68830D01*
X568098D01*
Y52320D02*
Y68830D01*
X539396Y52320D02*
X568098D01*
X546746Y95978D02*
X563256D01*
X546746D02*
Y124426D01*
X563256D01*
Y95978D02*
Y124426D01*
X164900Y262084D02*
X193602D01*
X164900Y245574D02*
Y262084D01*
Y245574D02*
X193602D01*
Y262084D01*
X441150Y128820D02*
Y145330D01*
X469598D01*
Y128820D02*
Y145330D01*
X441150Y128820D02*
X469598D01*
X438270Y271650D02*
X466718D01*
Y288160D01*
X438270D02*
X466718D01*
X438270Y271650D02*
Y288160D01*
X561348Y197574D02*
Y214084D01*
X532900Y197574D02*
X561348D01*
X532900D02*
Y214084D01*
X561348D01*
X535992Y253478D02*
Y281926D01*
Y253478D02*
X552502D01*
Y281926D01*
X535992D02*
X552502D01*
X504146Y52070D02*
Y68580D01*
X532848D01*
Y52070D02*
Y68580D01*
X504146Y52070D02*
X532848D01*
X442146Y107070D02*
X470848D01*
Y123580D01*
X442146D02*
X470848D01*
X442146Y107070D02*
Y123580D01*
X442896Y86320D02*
Y102830D01*
X471598D01*
Y86320D02*
Y102830D01*
X442896Y86320D02*
X471598D01*
D11*
X388284Y203614D02*
G03*
X388284Y203614I-1250J0D01*
G01*
D12*
X648080Y225514D02*
Y252514D01*
X632080Y225514D02*
Y252514D01*
X546844Y342138D02*
X589294D01*
Y354458D01*
X546844Y342138D02*
Y354458D01*
X554144D01*
X581994D02*
X589294D01*
X16918Y138178D02*
Y177178D01*
X67418Y138178D02*
Y177178D01*
X271842Y324914D02*
X310842D01*
X271842Y274414D02*
X310842D01*
X484124Y62192D02*
Y67352D01*
X471524Y13952D02*
X484124Y26552D01*
X418124Y13952D02*
X471524D01*
Y79952D02*
X484124Y67352D01*
X418124Y79952D02*
X471524D01*
X484124Y26552D02*
Y31712D01*
X418124Y62192D02*
Y79952D01*
Y13952D02*
Y31712D01*
D13*
X372114Y84272D02*
Y99512D01*
X340618Y84272D02*
X372114D01*
X340618D02*
Y99512D01*
X372114D01*
X328874Y150404D02*
X373422Y194952D01*
X284326D02*
X328874Y150404D01*
X284326Y194952D02*
X328874Y239500D01*
X373422Y194952D01*
X569518Y102462D02*
Y132942D01*
X615492D01*
Y102462D02*
Y132942D01*
X569518Y102462D02*
X615492D01*
X591710Y103043D02*
Y131999D01*
X340364Y81478D02*
X371860D01*
X340364Y65730D02*
Y81478D01*
X371860Y65730D02*
Y81478D01*
X340364Y65730D02*
X371860D01*
D14*
X417874Y180202D02*
X455874D01*
X417874Y260202D02*
X455874Y260202D01*
Y257540D02*
Y260202D01*
X455924Y203184D02*
Y236966D01*
X455874Y180202D02*
Y182356D01*
X417874Y180202D02*
Y182356D01*
X417824Y203184D02*
X418078Y233156D01*
X417874Y255762D02*
Y260202D01*
D15*
X51816Y263966D02*
Y259184D01*
X54207Y256794D01*
X56597Y259184D01*
Y263966D01*
X15494Y363026D02*
Y355854D01*
Y359440D01*
X20275D01*
Y363026D01*
Y355854D01*
X22666Y360635D02*
Y357049D01*
X23861Y355854D01*
X27447D01*
Y360635D01*
X29837Y355854D02*
Y360635D01*
X31033D01*
X32228Y359440D01*
Y355854D01*
Y359440D01*
X33423Y360635D01*
X34618Y359440D01*
Y355854D01*
X37009D02*
X39399D01*
X38204D01*
Y360635D01*
X37009D01*
X56597Y312554D02*
X55402Y313750D01*
X53011D01*
X51816Y312554D01*
Y307773D01*
X53011Y306578D01*
X55402D01*
X56597Y307773D01*
Y310164D01*
X54207D01*
X49530Y290740D02*
X54311D01*
X51920D01*
Y283568D01*
X60287D02*
X57897D01*
X56702Y284764D01*
Y287154D01*
X57897Y288350D01*
X60287D01*
X61483Y287154D01*
Y285959D01*
X56702D01*
X63873Y283568D02*
Y288350D01*
X65069D01*
X66264Y287154D01*
Y283568D01*
Y287154D01*
X67459Y288350D01*
X68654Y287154D01*
Y283568D01*
X71045Y281178D02*
Y288350D01*
X74631D01*
X75826Y287154D01*
Y284764D01*
X74631Y283568D01*
X71045D01*
X660355Y211462D02*
X659160Y212658D01*
X656769D01*
X655574Y211462D01*
Y206681D01*
X656769Y205486D01*
X659160D01*
X660355Y206681D01*
Y209072D01*
X657965D01*
X648417Y95056D02*
X643636D01*
Y91470D01*
X646027Y92665D01*
X647222D01*
X648417Y91470D01*
Y89079D01*
X647222Y87884D01*
X644831D01*
X643636Y89079D01*
X650808Y95056D02*
Y90274D01*
X653198Y87884D01*
X655589Y90274D01*
Y95056D01*
X528320Y365760D02*
X533101D01*
X499364Y365864D02*
X504145D01*
X501754Y368255D02*
Y363474D01*
X653751Y62872D02*
X652556Y64068D01*
X650165D01*
X648970Y62872D01*
Y58091D01*
X650165Y56896D01*
X652556D01*
X653751Y58091D01*
Y60482D01*
X651360D01*
X385318Y368106D02*
Y363325D01*
X387709Y360934D01*
X390099Y363325D01*
Y368106D01*
X363937Y366910D02*
X362742Y368106D01*
X360351D01*
X359156Y366910D01*
Y362129D01*
X360351Y360934D01*
X362742D01*
X363937Y362129D01*
Y364520D01*
X361547D01*
X333756Y368106D02*
Y360934D01*
X337342D01*
X338537Y362129D01*
Y363325D01*
X337342Y364520D01*
X333756D01*
X337342D01*
X338537Y365715D01*
Y366910D01*
X337342Y368106D01*
X333756D01*
X307594Y360934D02*
Y365715D01*
X309984Y368106D01*
X312375Y365715D01*
Y360934D01*
Y364520D01*
X307594D01*
X46736Y50860D02*
Y43688D01*
X50322D01*
X51517Y44883D01*
Y46079D01*
X50322Y47274D01*
X46736D01*
X50322D01*
X51517Y48469D01*
Y49664D01*
X50322Y50860D01*
X46736D01*
X44958Y73152D02*
Y77933D01*
X47348Y80324D01*
X49739Y77933D01*
Y73152D01*
Y76738D01*
X44958D01*
X46482Y65846D02*
Y59869D01*
X47677Y58674D01*
X50068D01*
X51263Y59869D01*
Y65846D01*
X53654Y58674D02*
Y63455D01*
X56044Y65846D01*
X58435Y63455D01*
Y58674D01*
Y62260D01*
X53654D01*
X60825Y58674D02*
Y65846D01*
X64411D01*
X65606Y64650D01*
Y62260D01*
X64411Y61065D01*
X60825D01*
X63216D02*
X65606Y58674D01*
X67997Y65846D02*
X72778D01*
X70388D01*
Y58674D01*
X75169D02*
X77559D01*
X76364D01*
Y65846D01*
X75169Y64650D01*
X367538Y324164D02*
Y318187D01*
X368733Y316992D01*
X371124D01*
X372319Y318187D01*
Y324164D01*
X374710Y316992D02*
Y321773D01*
X377100Y324164D01*
X379491Y321773D01*
Y316992D01*
Y320578D01*
X374710D01*
X381881Y316992D02*
Y324164D01*
X385467D01*
X386662Y322968D01*
Y320578D01*
X385467Y319382D01*
X381881D01*
X384272D02*
X386662Y316992D01*
X389053Y324164D02*
X393834D01*
X391443D01*
Y316992D01*
X401006D02*
X396225D01*
X401006Y321773D01*
Y322968D01*
X399810Y324164D01*
X397420D01*
X396225Y322968D01*
X164084Y324164D02*
Y318187D01*
X165279Y316992D01*
X167670D01*
X168865Y318187D01*
Y324164D01*
X171256Y316992D02*
Y321773D01*
X173646Y324164D01*
X176037Y321773D01*
Y316992D01*
Y320578D01*
X171256D01*
X178427Y316992D02*
Y324164D01*
X182013D01*
X183208Y322968D01*
Y320578D01*
X182013Y319382D01*
X178427D01*
X180818D02*
X183208Y316992D01*
X185599Y324164D02*
X190380D01*
X187990D01*
Y316992D01*
X192771Y322968D02*
X193966Y324164D01*
X196357D01*
X197552Y322968D01*
Y321773D01*
X196357Y320578D01*
X195161D01*
X196357D01*
X197552Y319382D01*
Y318187D01*
X196357Y316992D01*
X193966D01*
X192771Y318187D01*
X573278Y361950D02*
X578059D01*
X558038Y361800D02*
X562819D01*
X560429Y364191D02*
Y359410D01*
X578059Y336355D02*
X572262D01*
Y332008D01*
X575160D01*
X572262D01*
Y327660D01*
X580957D02*
Y333457D01*
X583856Y336355D01*
X586754Y333457D01*
Y327660D01*
Y332008D01*
X580957D01*
X589652Y327660D02*
Y336355D01*
X595449Y327660D01*
Y336355D01*
X638810Y40132D02*
X629353D01*
Y44861D01*
X630929Y46437D01*
X634081D01*
X635658Y44861D01*
Y40132D01*
X629353Y54317D02*
Y51165D01*
X630929Y49589D01*
X637234D01*
X638810Y51165D01*
Y54317D01*
X637234Y55894D01*
X630929D01*
X629353Y54317D01*
Y59046D02*
X638810D01*
X635658Y62198D01*
X638810Y65350D01*
X629353D01*
Y74807D02*
Y68503D01*
X638810D01*
Y74807D01*
X634081Y68503D02*
Y71655D01*
X638810Y77960D02*
X629353D01*
Y82688D01*
X630929Y84264D01*
X634081D01*
X635658Y82688D01*
Y77960D01*
Y81112D02*
X638810Y84264D01*
X202617Y271326D02*
Y283322D01*
X208615D01*
X210615Y281323D01*
Y277324D01*
X208615Y275325D01*
X202617D01*
X206616D02*
X210615Y271326D01*
X220611D02*
Y283322D01*
X214613Y277324D01*
X222611D01*
X671140Y318366D02*
X669563Y319942D01*
X666411D01*
X664835Y318366D01*
Y312062D01*
X666411Y310485D01*
X669563D01*
X671140Y312062D01*
X674292Y310485D02*
X677444D01*
X675868D01*
Y319942D01*
X674292Y318366D01*
X688477Y319942D02*
X682172D01*
Y315214D01*
X685325Y316790D01*
X686901D01*
X688477Y315214D01*
Y312062D01*
X686901Y310485D01*
X683749D01*
X682172Y312062D01*
X668278Y255273D02*
Y270508D01*
X675896D01*
X678435Y267968D01*
Y262890D01*
X675896Y260351D01*
X668278D01*
X683513Y267968D02*
X686052Y270508D01*
X691131D01*
X693670Y267968D01*
Y265429D01*
X691131Y262890D01*
X693670Y260351D01*
Y257812D01*
X691131Y255273D01*
X686052D01*
X683513Y257812D01*
Y260351D01*
X686052Y262890D01*
X683513Y265429D01*
Y267968D01*
X686052Y262890D02*
X691131D01*
X639957Y159922D02*
Y149925D01*
X641956Y147926D01*
X645955D01*
X647954Y149925D01*
Y159922D01*
X651953Y147926D02*
X655951D01*
X653952D01*
Y159922D01*
X651953Y157923D01*
X593589Y262480D02*
Y274476D01*
X599587D01*
X601586Y272477D01*
Y268478D01*
X599587Y266479D01*
X593589D01*
X597588D02*
X601586Y262480D01*
X605585D02*
X609584D01*
X607584D01*
Y274476D01*
X605585Y272477D01*
X621580Y262480D02*
Y274476D01*
X615582Y268478D01*
X623579D01*
X631689Y264004D02*
Y276000D01*
X637687D01*
X639686Y274001D01*
Y270002D01*
X637687Y268003D01*
X631689D01*
X635688D02*
X639686Y264004D01*
X643685D02*
X647684D01*
X645684D01*
Y276000D01*
X643685Y274001D01*
X661679Y276000D02*
X653682D01*
Y270002D01*
X657680Y272001D01*
X659680D01*
X661679Y270002D01*
Y266003D01*
X659680Y264004D01*
X655681D01*
X653682Y266003D01*
X573441Y169770D02*
Y181766D01*
X579439D01*
X581439Y179767D01*
Y175768D01*
X579439Y173769D01*
X573441D01*
X577440D02*
X581439Y169770D01*
X585437Y181766D02*
X593435D01*
Y179767D01*
X585437Y171769D01*
Y169770D01*
X584839Y209452D02*
Y197456D01*
X592836D01*
X596835D02*
X600833D01*
X598834D01*
Y209452D01*
X596835Y207453D01*
X611476Y232319D02*
X623472D01*
Y238317D01*
X621473Y240317D01*
X613475D01*
X611476Y238317D01*
Y232319D01*
X613475Y244315D02*
X611476Y246315D01*
Y250313D01*
X613475Y252313D01*
X615475D01*
X617474Y250313D01*
Y248314D01*
Y250313D01*
X619473Y252313D01*
X621473D01*
X623472Y250313D01*
Y246315D01*
X621473Y244315D01*
X670928Y151573D02*
X668929Y153572D01*
X664930D01*
X662931Y151573D01*
Y143575D01*
X664930Y141576D01*
X668929D01*
X670928Y143575D01*
X674927Y141576D02*
X678926D01*
X676926D01*
Y153572D01*
X674927Y151573D01*
X690922Y141576D02*
Y153572D01*
X684924Y147574D01*
X692921D01*
X614794Y339025D02*
X612795Y341024D01*
X608796D01*
X606797Y339025D01*
Y331027D01*
X608796Y329028D01*
X612795D01*
X614794Y331027D01*
X618793Y329028D02*
X622792D01*
X620792D01*
Y341024D01*
X618793Y339025D01*
X636787Y341024D02*
X632788Y339025D01*
X628790Y335026D01*
Y331027D01*
X630789Y329028D01*
X634788D01*
X636787Y331027D01*
Y333027D01*
X634788Y335026D01*
X628790D01*
X662182Y114049D02*
Y129284D01*
X669800D01*
X672339Y126744D01*
Y121666D01*
X669800Y119127D01*
X662182D01*
X685035Y114049D02*
Y129284D01*
X677417Y121666D01*
X687574D01*
X284455Y83353D02*
Y90971D01*
X288264D01*
X289533Y89701D01*
Y87162D01*
X288264Y85892D01*
X284455D01*
X286994D02*
X289533Y83353D01*
X292072D02*
X294611D01*
X293342D01*
Y90971D01*
X292072Y89701D01*
X298420D02*
X299690Y90971D01*
X302229D01*
X303499Y89701D01*
Y88432D01*
X302229Y87162D01*
X300959D01*
X302229D01*
X303499Y85892D01*
Y84623D01*
X302229Y83353D01*
X299690D01*
X298420Y84623D01*
X238636Y40387D02*
Y48005D01*
X242445D01*
X243714Y46735D01*
Y44196D01*
X242445Y42926D01*
X238636D01*
X241175D02*
X243714Y40387D01*
X246254D02*
X248793D01*
X247523D01*
Y48005D01*
X246254Y46735D01*
X257680Y40387D02*
X252602D01*
X257680Y45466D01*
Y46735D01*
X256410Y48005D01*
X253871D01*
X252602Y46735D01*
X458982Y338585D02*
Y353820D01*
X466600D01*
X469139Y351280D01*
Y346202D01*
X466600Y343663D01*
X458982D01*
X474217Y353820D02*
X484374D01*
Y351280D01*
X474217Y341124D01*
Y338585D01*
X17529Y13211D02*
Y28445D01*
X25147D01*
X27686Y25906D01*
Y20828D01*
X25147Y18289D01*
X17529D01*
X32764Y13211D02*
X37843D01*
X35304D01*
Y28445D01*
X32764Y25906D01*
X595888Y349506D02*
Y364742D01*
X603506D01*
X606045Y362202D01*
Y357124D01*
X603506Y354585D01*
X595888D01*
X621280Y364742D02*
X616202Y362202D01*
X611123Y357124D01*
Y352046D01*
X613662Y349506D01*
X618741D01*
X621280Y352046D01*
Y354585D01*
X618741Y357124D01*
X611123D01*
X412500Y338077D02*
Y353312D01*
X420118D01*
X422657Y350772D01*
Y345694D01*
X420118Y343155D01*
X412500D01*
X437892Y353312D02*
X427735D01*
Y345694D01*
X432813Y348233D01*
X435353D01*
X437892Y345694D01*
Y340616D01*
X435353Y338077D01*
X430274D01*
X427735Y340616D01*
X125988Y336806D02*
Y352042D01*
X133606D01*
X136145Y349502D01*
Y344424D01*
X133606Y341885D01*
X125988D01*
X151380Y336806D02*
X141223D01*
X151380Y346963D01*
Y349502D01*
X148841Y352042D01*
X143762D01*
X141223Y349502D01*
X18038Y222502D02*
Y209806D01*
X20577Y207267D01*
X25656D01*
X28195Y209806D01*
Y222502D01*
X43430D02*
X33273D01*
Y214884D01*
X38352Y217423D01*
X40891D01*
X43430Y214884D01*
Y209806D01*
X40891Y207267D01*
X35812D01*
X33273Y209806D01*
X63505Y94490D02*
Y109726D01*
X71123D01*
X73662Y107186D01*
Y102108D01*
X71123Y99569D01*
X63505D01*
X68584D02*
X73662Y94490D01*
X78740D02*
X83819D01*
X81280D01*
Y109726D01*
X78740Y107186D01*
X91436Y94490D02*
X96515D01*
X93975D01*
Y109726D01*
X91436Y107186D01*
X314869Y99890D02*
Y87894D01*
X320867D01*
X322867Y89893D01*
Y97891D01*
X320867Y99890D01*
X314869D01*
X334863Y87894D02*
X326865D01*
X334863Y95891D01*
Y97891D01*
X332863Y99890D01*
X328865D01*
X326865Y97891D01*
X278039Y268380D02*
Y258383D01*
X280039Y256384D01*
X284037D01*
X286037Y258383D01*
Y268380D01*
X296033Y256384D02*
Y268380D01*
X290035Y262382D01*
X298033D01*
X202267Y303673D02*
Y313130D01*
X206995D01*
X208571Y311554D01*
Y308402D01*
X206995Y306826D01*
X202267D01*
X205419D02*
X208571Y303673D01*
X211724D02*
X214876D01*
X213300D01*
Y313130D01*
X211724Y311554D01*
X219605D02*
X221181Y313130D01*
X224333D01*
X225909Y311554D01*
Y305250D01*
X224333Y303673D01*
X221181D01*
X219605Y305250D01*
Y311554D01*
X335443Y269650D02*
Y259653D01*
X337443Y257654D01*
X341441D01*
X343441Y259653D01*
Y269650D01*
X347439Y267651D02*
X349439Y269650D01*
X353437D01*
X355437Y267651D01*
Y265651D01*
X353437Y263652D01*
X351438D01*
X353437D01*
X355437Y261653D01*
Y259653D01*
X353437Y257654D01*
X349439D01*
X347439Y259653D01*
X395625Y26451D02*
X393625Y28450D01*
X389627D01*
X387627Y26451D01*
Y18453D01*
X389627Y16454D01*
X393625D01*
X395625Y18453D01*
X405621Y16454D02*
Y28450D01*
X399623Y22452D01*
X407621D01*
X207681Y40738D02*
Y52734D01*
X213679D01*
X215679Y50735D01*
Y46736D01*
X213679Y44737D01*
X207681D01*
X211680D02*
X215679Y40738D01*
X219677Y42737D02*
X221677Y40738D01*
X225675D01*
X227675Y42737D01*
Y50735D01*
X225675Y52734D01*
X221677D01*
X219677Y50735D01*
Y48735D01*
X221677Y46736D01*
X227675D01*
X319527Y47598D02*
X323526D01*
X321526D01*
Y35602D01*
X319527D01*
X323526D01*
X337521D02*
X329524D01*
X337521Y43599D01*
Y45599D01*
X335522Y47598D01*
X331523D01*
X329524Y45599D01*
X349517D02*
X347518Y47598D01*
X343519D01*
X341520Y45599D01*
Y37601D01*
X343519Y35602D01*
X347518D01*
X349517Y37601D01*
X412496Y280474D02*
Y278475D01*
X416495Y274476D01*
X420493Y278475D01*
Y280474D01*
X416495Y274476D02*
Y268478D01*
X432490D02*
X424492D01*
X432490Y276475D01*
Y278475D01*
X430490Y280474D01*
X426492D01*
X424492Y278475D01*
X446377Y331450D02*
Y329451D01*
X450375Y325452D01*
X454374Y329451D01*
Y331450D01*
X450375Y325452D02*
Y319454D01*
X458373D02*
X462371D01*
X460372D01*
Y331450D01*
X458373Y329451D01*
X621193Y117250D02*
Y107253D01*
X623193Y105254D01*
X627191D01*
X629191Y107253D01*
Y117250D01*
X641187Y105254D02*
X633189D01*
X641187Y113251D01*
Y115251D01*
X639187Y117250D01*
X635189D01*
X633189Y115251D01*
X176626Y119201D02*
X174627Y121200D01*
X170628D01*
X168629Y119201D01*
Y117201D01*
X170628Y115202D01*
X174627D01*
X176626Y113203D01*
Y111203D01*
X174627Y109204D01*
X170628D01*
X168629Y111203D01*
X180625Y121200D02*
Y109204D01*
X184623Y113203D01*
X188622Y109204D01*
Y121200D01*
X192621Y109204D02*
X196619D01*
X194620D01*
Y121200D01*
X192621Y119201D01*
X281595Y110842D02*
Y122838D01*
X287593D01*
X289593Y120839D01*
Y116840D01*
X287593Y114841D01*
X281595D01*
X285594D02*
X289593Y110842D01*
X301589Y122838D02*
X297590Y120839D01*
X293591Y116840D01*
Y112841D01*
X295591Y110842D01*
X299589D01*
X301589Y112841D01*
Y114841D01*
X299589Y116840D01*
X293591D01*
X206627Y92454D02*
Y104450D01*
X212625D01*
X214625Y102451D01*
Y98452D01*
X212625Y96453D01*
X206627D01*
X210626D02*
X214625Y92454D01*
X226621Y104450D02*
X218623D01*
Y98452D01*
X222622Y100451D01*
X224621D01*
X226621Y98452D01*
Y94453D01*
X224621Y92454D01*
X220623D01*
X218623Y94453D01*
X566841Y226864D02*
Y238860D01*
X572839D01*
X574839Y236861D01*
Y232862D01*
X572839Y230863D01*
X566841D01*
X570840D02*
X574839Y226864D01*
X578837Y236861D02*
X580837Y238860D01*
X584835D01*
X586835Y236861D01*
Y234861D01*
X584835Y232862D01*
X582836D01*
X584835D01*
X586835Y230863D01*
Y228863D01*
X584835Y226864D01*
X580837D01*
X578837Y228863D01*
X189139Y61312D02*
Y73308D01*
X195137D01*
X197137Y71309D01*
Y67310D01*
X195137Y65311D01*
X189139D01*
X193138D02*
X197137Y61312D01*
X209133D02*
X201135D01*
X209133Y69309D01*
Y71309D01*
X207133Y73308D01*
X203135D01*
X201135Y71309D01*
X421812Y129343D02*
Y139561D01*
X426921D01*
X428624Y137858D01*
Y134452D01*
X426921Y132749D01*
X421812D01*
X425218D02*
X428624Y129343D01*
X432030D02*
X435437D01*
X433733D01*
Y139561D01*
X432030Y137858D01*
X82173Y130999D02*
X80173Y132998D01*
X76175D01*
X74175Y130999D01*
Y128999D01*
X76175Y127000D01*
X80173D01*
X82173Y125001D01*
Y123001D01*
X80173Y121002D01*
X76175D01*
X74175Y123001D01*
X86171Y132998D02*
Y121002D01*
X90170Y125001D01*
X94169Y121002D01*
Y132998D01*
X98167D02*
Y121002D01*
X104165D01*
X106165Y123001D01*
Y130999D01*
X104165Y132998D01*
X98167D01*
X108556Y76356D02*
X104557D01*
X106557D01*
Y66359D01*
X104557Y64360D01*
X102558D01*
X100559Y66359D01*
X112555Y64360D02*
Y76356D01*
X118553D01*
X120552Y74357D01*
Y70358D01*
X118553Y68359D01*
X112555D01*
X124551Y64360D02*
X128549D01*
X126550D01*
Y76356D01*
X124551Y74357D01*
X315365Y78856D02*
Y66860D01*
X321363D01*
X323362Y68859D01*
Y76857D01*
X321363Y78856D01*
X315365D01*
X327361Y66860D02*
X331359D01*
X329360D01*
Y78856D01*
X327361Y76857D01*
X523055Y137980D02*
X521056Y135981D01*
Y131982D01*
X523055Y129983D01*
X531053D01*
X533052Y131982D01*
Y135981D01*
X531053Y137980D01*
X533052Y141979D02*
Y145978D01*
Y143978D01*
X521056D01*
X523055Y141979D01*
Y151976D02*
X521056Y153975D01*
Y157974D01*
X523055Y159973D01*
X525055D01*
X527054Y157974D01*
Y155974D01*
Y157974D01*
X529053Y159973D01*
X531053D01*
X533052Y157974D01*
Y153975D01*
X531053Y151976D01*
X511376Y91701D02*
X509377Y93700D01*
X505378D01*
X503379Y91701D01*
Y83703D01*
X505378Y81704D01*
X509377D01*
X511376Y83703D01*
X515375Y81704D02*
X519374D01*
X517374D01*
Y93700D01*
X515375Y91701D01*
X533369Y81704D02*
X525372D01*
X533369Y89701D01*
Y91701D01*
X531370Y93700D01*
X527371D01*
X525372Y91701D01*
X551774Y44329D02*
X549774Y46328D01*
X545776D01*
X543776Y44329D01*
Y36331D01*
X545776Y34332D01*
X549774D01*
X551774Y36331D01*
X555772Y34332D02*
X559771D01*
X557772D01*
Y46328D01*
X555772Y44329D01*
X565769Y34332D02*
X569768D01*
X567769D01*
Y46328D01*
X565769Y44329D01*
X519544Y114235D02*
X517545Y116234D01*
X513546D01*
X511547Y114235D01*
Y106237D01*
X513546Y104238D01*
X517545D01*
X519544Y106237D01*
X523543Y104238D02*
X527542D01*
X525542D01*
Y116234D01*
X523543Y114235D01*
X533540D02*
X535539Y116234D01*
X539538D01*
X541537Y114235D01*
Y106237D01*
X539538Y104238D01*
X535539D01*
X533540Y106237D01*
Y114235D01*
X206625Y257451D02*
X204625Y259450D01*
X200627D01*
X198627Y257451D01*
Y249453D01*
X200627Y247454D01*
X204625D01*
X206625Y249453D01*
X210623D02*
X212623Y247454D01*
X216621D01*
X218621Y249453D01*
Y257451D01*
X216621Y259450D01*
X212623D01*
X210623Y257451D01*
Y255451D01*
X212623Y253452D01*
X218621D01*
X450973Y163921D02*
X448974Y165920D01*
X444975D01*
X442976Y163921D01*
Y155923D01*
X444975Y153924D01*
X448974D01*
X450973Y155923D01*
X454972Y163921D02*
X456972Y165920D01*
X460970D01*
X462970Y163921D01*
Y161921D01*
X460970Y159922D01*
X462970Y157923D01*
Y155923D01*
X460970Y153924D01*
X456972D01*
X454972Y155923D01*
Y157923D01*
X456972Y159922D01*
X454972Y161921D01*
Y163921D01*
X456972Y159922D02*
X460970D01*
X449625Y303951D02*
X447625Y305950D01*
X443627D01*
X441627Y303951D01*
Y295953D01*
X443627Y293954D01*
X447625D01*
X449625Y295953D01*
X453623Y305950D02*
X461621D01*
Y303951D01*
X453623Y295953D01*
Y293954D01*
X546625Y188201D02*
X544625Y190200D01*
X540627D01*
X538627Y188201D01*
Y180203D01*
X540627Y178204D01*
X544625D01*
X546625Y180203D01*
X558621Y190200D02*
X554622Y188201D01*
X550623Y184202D01*
Y180203D01*
X552623Y178204D01*
X556621D01*
X558621Y180203D01*
Y182203D01*
X556621Y184202D01*
X550623D01*
X564971Y273916D02*
X563268Y275619D01*
X559862D01*
X558158Y273916D01*
Y267104D01*
X559862Y265401D01*
X563268D01*
X564971Y267104D01*
X575190Y275619D02*
X568377D01*
Y270510D01*
X571783Y272213D01*
X573487D01*
X575190Y270510D01*
Y267104D01*
X573487Y265401D01*
X570080D01*
X568377Y267104D01*
X518625Y43451D02*
X516625Y45450D01*
X512627D01*
X510627Y43451D01*
Y35453D01*
X512627Y33454D01*
X516625D01*
X518625Y35453D01*
X522623Y43451D02*
X524623Y45450D01*
X528621D01*
X530621Y43451D01*
Y41451D01*
X528621Y39452D01*
X526622D01*
X528621D01*
X530621Y37453D01*
Y35453D01*
X528621Y33454D01*
X524623D01*
X522623Y35453D01*
X425671Y118608D02*
X423968Y120311D01*
X420562D01*
X418858Y118608D01*
Y111796D01*
X420562Y110093D01*
X423968D01*
X425671Y111796D01*
X435890Y110093D02*
X429077D01*
X435890Y116905D01*
Y118608D01*
X434187Y120311D01*
X430780D01*
X429077Y118608D01*
X426874Y98858D02*
X425171Y100561D01*
X421765D01*
X420062Y98858D01*
Y92046D01*
X421765Y90343D01*
X425171D01*
X426874Y92046D01*
X430280Y90343D02*
X433686D01*
X431983D01*
Y100561D01*
X430280Y98858D01*
D16*
X98044Y9906D02*
X101430D01*
X99737D01*
Y20063D01*
X98044Y18370D01*
X101513Y43180D02*
X94742D01*
X101513Y49951D01*
Y51644D01*
X99820Y53337D01*
X96435D01*
X94742Y51644D01*
X194477Y20571D02*
X187706D01*
Y15492D01*
X191092Y17185D01*
X192784D01*
X194477Y15492D01*
Y12107D01*
X192784Y10414D01*
X189399D01*
X187706Y12107D01*
X193715Y53337D02*
X190330Y51644D01*
X186944Y48258D01*
Y44873D01*
X188637Y43180D01*
X192022D01*
X193715Y44873D01*
Y46566D01*
X192022Y48258D01*
X186944D01*
D17*
X369704Y60033D02*
X365705D01*
X367705Y58033D02*
Y62032D01*
X370098Y105305D02*
X366099D01*
X368099Y107305D02*
Y103306D01*
X119126Y93452D02*
X118126Y94452D01*
Y96451D01*
X119126Y97451D01*
X120125D01*
X121125Y96451D01*
Y95451D01*
Y96451D01*
X122125Y97451D01*
X123124D01*
X124124Y96451D01*
Y94452D01*
X123124Y93452D01*
X118126Y99450D02*
X122125D01*
X124124Y101449D01*
X122125Y103449D01*
X118126D01*
X119126Y105448D02*
X118126Y106448D01*
Y108447D01*
X119126Y109447D01*
X120125D01*
X121125Y108447D01*
Y107448D01*
Y108447D01*
X122125Y109447D01*
X123124D01*
X124124Y108447D01*
Y106448D01*
X123124Y105448D01*
X118126Y119202D02*
X124124D01*
Y122201D01*
X123124Y123201D01*
X119126D01*
X118126Y122201D01*
Y119202D01*
Y125200D02*
Y127199D01*
Y126200D01*
X124124D01*
Y125200D01*
Y127199D01*
X118126Y133197D02*
Y131198D01*
X119126Y130198D01*
X123124D01*
X124124Y131198D01*
Y133197D01*
X123124Y134197D01*
X119126D01*
X118126Y133197D01*
X118876Y148701D02*
X117876Y147701D01*
Y145702D01*
X118876Y144702D01*
X122874D01*
X123874Y145702D01*
Y147701D01*
X122874Y148701D01*
X117876Y150700D02*
X123874D01*
Y154699D01*
X117876Y156698D02*
X123874D01*
X121875D01*
X117876Y160697D01*
X120875Y157698D01*
X123874Y160697D01*
X119126Y174951D02*
X118126Y173951D01*
Y171952D01*
X119126Y170952D01*
X123124D01*
X124124Y171952D01*
Y173951D01*
X123124Y174951D01*
X121125D01*
Y172951D01*
X124124Y176950D02*
X118126D01*
X124124Y180949D01*
X118126D01*
Y182948D02*
X124124D01*
Y185947D01*
X123124Y186947D01*
X119126D01*
X118126Y185947D01*
Y182948D01*
M02*
