G04*
G04 #@! TF.GenerationSoftware,Altium Limited,Altium Designer,21.6.4 (81)*
G04*
G04 Layer_Color=8421504*
%FSLAX44Y44*%
%MOMM*%
G71*
G04*
G04 #@! TF.SameCoordinates,0F59C336-1F8A-43A6-AFB2-A1A9F9B71EC4*
G04*
G04*
G04 #@! TF.FilePolarity,Positive*
G04*
G01*
G75*
%ADD18R,0.6000X0.9000*%
%ADD19R,0.9000X0.6000*%
%ADD20R,1.3000X0.7000*%
%ADD21R,0.6000X1.2500*%
%ADD22R,1.2200X0.9100*%
G04:AMPARAMS|DCode=23|XSize=1.97mm|YSize=0.6mm|CornerRadius=0.075mm|HoleSize=0mm|Usage=FLASHONLY|Rotation=270.000|XOffset=0mm|YOffset=0mm|HoleType=Round|Shape=RoundedRectangle|*
%AMROUNDEDRECTD23*
21,1,1.9700,0.4500,0,0,270.0*
21,1,1.8200,0.6000,0,0,270.0*
1,1,0.1500,-0.2250,-0.9100*
1,1,0.1500,-0.2250,0.9100*
1,1,0.1500,0.2250,0.9100*
1,1,0.1500,0.2250,-0.9100*
%
%ADD23ROUNDEDRECTD23*%
%ADD24R,0.7000X1.3000*%
%ADD25R,1.0160X0.8890*%
G04:AMPARAMS|DCode=26|XSize=1.97mm|YSize=0.6mm|CornerRadius=0.075mm|HoleSize=0mm|Usage=FLASHONLY|Rotation=180.000|XOffset=0mm|YOffset=0mm|HoleType=Round|Shape=RoundedRectangle|*
%AMROUNDEDRECTD26*
21,1,1.9700,0.4500,0,0,180.0*
21,1,1.8200,0.6000,0,0,180.0*
1,1,0.1500,-0.9100,0.2250*
1,1,0.1500,0.9100,0.2250*
1,1,0.1500,0.9100,-0.2250*
1,1,0.1500,-0.9100,-0.2250*
%
%ADD26ROUNDEDRECTD26*%
G04:AMPARAMS|DCode=27|XSize=1.475mm|YSize=0.3mm|CornerRadius=0mm|HoleSize=0mm|Usage=FLASHONLY|Rotation=225.000|XOffset=0mm|YOffset=0mm|HoleType=Round|Shape=Rectangle|*
%AMROTATEDRECTD27*
4,1,4,0.4154,0.6276,0.6276,0.4154,-0.4154,-0.6276,-0.6276,-0.4154,0.4154,0.6276,0.0*
%
%ADD27ROTATEDRECTD27*%

G04:AMPARAMS|DCode=28|XSize=1.475mm|YSize=0.3mm|CornerRadius=0mm|HoleSize=0mm|Usage=FLASHONLY|Rotation=315.000|XOffset=0mm|YOffset=0mm|HoleType=Round|Shape=Rectangle|*
%AMROTATEDRECTD28*
4,1,4,-0.6276,0.4154,-0.4154,0.6276,0.6276,-0.4154,0.4154,-0.6276,-0.6276,0.4154,0.0*
%
%ADD28ROTATEDRECTD28*%

G04:AMPARAMS|DCode=29|XSize=3.51mm|YSize=1.58mm|CornerRadius=0.1975mm|HoleSize=0mm|Usage=FLASHONLY|Rotation=180.000|XOffset=0mm|YOffset=0mm|HoleType=Round|Shape=RoundedRectangle|*
%AMROUNDEDRECTD29*
21,1,3.5100,1.1850,0,0,180.0*
21,1,3.1150,1.5800,0,0,180.0*
1,1,0.3950,-1.5575,0.5925*
1,1,0.3950,1.5575,0.5925*
1,1,0.3950,1.5575,-0.5925*
1,1,0.3950,-1.5575,-0.5925*
%
%ADD29ROUNDEDRECTD29*%
%ADD30R,1.9000X1.3000*%
%ADD31R,2.2000X6.0000*%
%ADD32R,1.5000X0.5000*%
%ADD33R,1.5000X0.6000*%
%ADD34R,1.5000X0.6300*%
%ADD35R,1.2000X1.8000*%
D18*
X189114Y278074D02*
D03*
X174114D02*
D03*
X605910Y314960D02*
D03*
X620910D02*
D03*
X643502Y290068D02*
D03*
X658502D02*
D03*
X621164Y290576D02*
D03*
X606164D02*
D03*
X539124Y232702D02*
D03*
X554124D02*
D03*
X174632Y75184D02*
D03*
X159632D02*
D03*
X394124Y133702D02*
D03*
X409124D02*
D03*
X545874Y82452D02*
D03*
X560874D02*
D03*
X561374Y60702D02*
D03*
X546374D02*
D03*
X186624Y253702D02*
D03*
X171624D02*
D03*
X462874Y137202D02*
D03*
X447874D02*
D03*
X444994Y280032D02*
D03*
X459994D02*
D03*
X539624Y205702D02*
D03*
X554624D02*
D03*
X526124Y60452D02*
D03*
X511124D02*
D03*
X449124Y115452D02*
D03*
X464124D02*
D03*
X464874Y94702D02*
D03*
X449874D02*
D03*
D19*
X679323Y298330D02*
D03*
Y283330D02*
D03*
X614934Y211208D02*
D03*
Y196208D02*
D03*
X554874Y117702D02*
D03*
Y102702D02*
D03*
X544374Y275202D02*
D03*
Y260202D02*
D03*
D20*
X676402Y167444D02*
D03*
Y186444D02*
D03*
X610616Y153822D02*
D03*
Y172822D02*
D03*
X296926Y50952D02*
D03*
Y69952D02*
D03*
X272796Y50698D02*
D03*
Y69698D02*
D03*
X241304Y311544D02*
D03*
Y292544D02*
D03*
X266374Y100202D02*
D03*
Y119202D02*
D03*
X241874Y100202D02*
D03*
Y119202D02*
D03*
D21*
X636422Y194872D02*
D03*
X655422D02*
D03*
Y169872D02*
D03*
X645922D02*
D03*
X636422D02*
D03*
D22*
X640080Y255364D02*
D03*
Y222664D02*
D03*
D23*
X61218Y129738D02*
D03*
X48518D02*
D03*
X35818D02*
D03*
X23118D02*
D03*
Y185618D02*
D03*
X35818D02*
D03*
X48518D02*
D03*
X61218D02*
D03*
D24*
X28002Y103068D02*
D03*
X47002D02*
D03*
X249276Y67818D02*
D03*
X230276D02*
D03*
X489214Y137202D02*
D03*
X508214D02*
D03*
D25*
X348766Y91892D02*
D03*
X363966D02*
D03*
X348512Y73858D02*
D03*
X363712D02*
D03*
D26*
X263402Y280614D02*
D03*
Y293314D02*
D03*
Y306014D02*
D03*
Y318714D02*
D03*
X319282D02*
D03*
Y306014D02*
D03*
Y293314D02*
D03*
Y280614D02*
D03*
D27*
X378287Y205474D02*
D03*
X374751Y209009D02*
D03*
X371216Y212545D02*
D03*
X367680Y216080D02*
D03*
X364145Y219616D02*
D03*
X360609Y223151D02*
D03*
X357073Y226687D02*
D03*
X353538Y230222D02*
D03*
X350002Y233758D02*
D03*
X346467Y237294D02*
D03*
X342931Y240829D02*
D03*
X339396Y244365D02*
D03*
X279461Y184430D02*
D03*
X282997Y180895D02*
D03*
X286532Y177359D02*
D03*
X290068Y173824D02*
D03*
X293603Y170288D02*
D03*
X297139Y166753D02*
D03*
X300675Y163217D02*
D03*
X304210Y159682D02*
D03*
X307746Y156146D02*
D03*
X311281Y152611D02*
D03*
X314817Y149075D02*
D03*
X318352Y145539D02*
D03*
D28*
Y244365D02*
D03*
X314817Y240829D02*
D03*
X311281Y237294D02*
D03*
X307746Y233758D02*
D03*
X304210Y230222D02*
D03*
X300675Y226687D02*
D03*
X297139Y223151D02*
D03*
X293603Y219616D02*
D03*
X290068Y216080D02*
D03*
X286532Y212545D02*
D03*
X282997Y209009D02*
D03*
X279461Y205474D02*
D03*
X339396Y145539D02*
D03*
X342931Y149075D02*
D03*
X346467Y152611D02*
D03*
X350002Y156146D02*
D03*
X353538Y159682D02*
D03*
X357073Y163217D02*
D03*
X360609Y166753D02*
D03*
X364145Y170288D02*
D03*
X367680Y173824D02*
D03*
X371216Y177359D02*
D03*
X374751Y180895D02*
D03*
X378287Y184430D02*
D03*
D29*
X478124Y46952D02*
D03*
X424124D02*
D03*
D30*
X420364Y243062D02*
D03*
X420874Y192702D02*
D03*
X452874D02*
D03*
X452874Y247702D02*
D03*
D31*
X488874Y198702D02*
D03*
Y293702D02*
D03*
D32*
X580124Y108702D02*
D03*
Y126702D02*
D03*
D33*
X604124Y108702D02*
D03*
Y117702D02*
D03*
D34*
Y126702D02*
D03*
D35*
X176874Y221452D02*
D03*
Y143952D02*
D03*
M02*
