G04*
G04 #@! TF.GenerationSoftware,Altium Limited,Altium Designer,21.6.4 (81)*
G04*
G04 Layer_Physical_Order=2*
G04 Layer_Color=16711680*
%FSLAX44Y44*%
%MOMM*%
G71*
G04*
G04 #@! TF.SameCoordinates,0F59C336-1F8A-43A6-AFB2-A1A9F9B71EC4*
G04*
G04*
G04 #@! TF.FilePolarity,Positive*
G04*
G01*
G75*
%ADD15C,0.2540*%
%ADD61R,1.5000X1.5000*%
%ADD62C,1.5000*%
%ADD63R,1.5000X1.5000*%
%ADD64R,0.9000X0.9000*%
%ADD65C,3.2000*%
%ADD66C,3.2000*%
%ADD67C,1.0160*%
G36*
X692404Y5842D02*
X690626Y4064D01*
X1778D01*
Y368002D01*
X2286Y369062D01*
X3346Y369570D01*
X692404D01*
Y5842D01*
D02*
G37*
%LPC*%
G36*
X568344Y356258D02*
X555344D01*
Y343258D01*
X568344D01*
Y356258D01*
D02*
G37*
G36*
X512928Y355448D02*
X493928D01*
Y336448D01*
X512928D01*
Y355448D01*
D02*
G37*
G36*
X261472Y353614D02*
X242472D01*
Y334614D01*
X261472D01*
Y353614D01*
D02*
G37*
G36*
X236072D02*
X217072D01*
Y334614D01*
X236072D01*
Y353614D01*
D02*
G37*
G36*
X210672D02*
X191672D01*
Y334614D01*
X210672D01*
Y353614D01*
D02*
G37*
G36*
X396850Y352908D02*
X377850D01*
Y333908D01*
X396850D01*
Y352908D01*
D02*
G37*
G36*
X346050D02*
X327050D01*
Y333908D01*
X346050D01*
Y352908D01*
D02*
G37*
G36*
X320650D02*
X301650D01*
Y333908D01*
X320650D01*
Y352908D01*
D02*
G37*
G36*
X75691Y363384D02*
X72145D01*
X68668Y362692D01*
X65392Y361335D01*
X62444Y359366D01*
X59936Y356858D01*
X57967Y353910D01*
X56610Y350634D01*
X55918Y347157D01*
Y343611D01*
X56610Y340134D01*
X57967Y336858D01*
X59936Y333910D01*
X62444Y331403D01*
X65392Y329433D01*
X68668Y328076D01*
X72145Y327384D01*
X75691D01*
X79168Y328076D01*
X82444Y329433D01*
X85392Y331403D01*
X87900Y333910D01*
X89869Y336858D01*
X91226Y340134D01*
X91918Y343611D01*
Y347157D01*
X91226Y350634D01*
X89869Y353910D01*
X87900Y356858D01*
X85392Y359366D01*
X82444Y361335D01*
X79168Y362692D01*
X75691Y363384D01*
D02*
G37*
G36*
X669147Y363384D02*
X665601D01*
X662124Y362692D01*
X658848Y361335D01*
X655900Y359366D01*
X653392Y356858D01*
X651423Y353910D01*
X650066Y350634D01*
X649374Y347157D01*
Y343611D01*
X650066Y340134D01*
X651423Y336858D01*
X653392Y333910D01*
X655900Y331403D01*
X658848Y329433D01*
X662124Y328076D01*
X665601Y327384D01*
X669147D01*
X672624Y328076D01*
X675900Y329433D01*
X678848Y331403D01*
X681356Y333910D01*
X683325Y336858D01*
X684682Y340134D01*
X685374Y343611D01*
Y347157D01*
X684682Y350634D01*
X683325Y353910D01*
X681356Y356858D01*
X678848Y359366D01*
X675900Y361335D01*
X672624Y362692D01*
X669147Y363384D01*
D02*
G37*
G36*
X38202Y346812D02*
X19202D01*
Y327812D01*
X33487D01*
X102290Y259008D01*
X103372Y258286D01*
X104648Y258032D01*
X242162D01*
X242747Y257019D01*
X244065Y255701D01*
X245679Y254769D01*
X247480Y254286D01*
X249344D01*
X251145Y254769D01*
X252759Y255701D01*
X254077Y257019D01*
X255009Y258633D01*
X255492Y260434D01*
Y262298D01*
X255009Y264099D01*
X254077Y265713D01*
X252759Y267031D01*
X251145Y267964D01*
X249344Y268446D01*
X247480D01*
X245679Y267964D01*
X244065Y267031D01*
X242747Y265713D01*
X242162Y264700D01*
X106029D01*
X38202Y332527D01*
Y346812D01*
D02*
G37*
G36*
X154348Y288004D02*
X152484D01*
X150683Y287521D01*
X149069Y286589D01*
X147751Y285271D01*
X146819Y283657D01*
X146336Y281856D01*
Y279992D01*
X146819Y278191D01*
X147751Y276577D01*
X149069Y275259D01*
X150683Y274326D01*
X152484Y273844D01*
X154348D01*
X156149Y274326D01*
X157763Y275259D01*
X159081Y276577D01*
X159666Y277590D01*
X269621D01*
X272768Y274443D01*
Y215336D01*
X273022Y214060D01*
X273745Y212978D01*
X292286Y194436D01*
X293368Y193714D01*
X294644Y193460D01*
X313966D01*
X315242Y193714D01*
X316324Y194436D01*
X370812Y248925D01*
X371942Y248622D01*
X373806D01*
X375607Y249104D01*
X377221Y250037D01*
X378539Y251355D01*
X379472Y252969D01*
X379954Y254770D01*
Y256634D01*
X379472Y258435D01*
X378539Y260049D01*
X377221Y261367D01*
X375607Y262299D01*
X373806Y262782D01*
X371942D01*
X370141Y262299D01*
X368527Y261367D01*
X367209Y260049D01*
X366277Y258435D01*
X365794Y256634D01*
Y254770D01*
X366097Y253640D01*
X312585Y200128D01*
X296025D01*
X279436Y216717D01*
Y275824D01*
X279182Y277100D01*
X278459Y278182D01*
X273360Y283281D01*
X272278Y284004D01*
X271002Y284258D01*
X159666D01*
X159081Y285271D01*
X157763Y286589D01*
X156149Y287521D01*
X154348Y288004D01*
D02*
G37*
G36*
X409056Y268282D02*
X407192D01*
X405391Y267799D01*
X403777Y266867D01*
X402459Y265549D01*
X401526Y263935D01*
X401044Y262134D01*
Y260270D01*
X401526Y258469D01*
X402459Y256855D01*
X403777Y255537D01*
X405391Y254604D01*
X407192Y254122D01*
X409056D01*
X410857Y254604D01*
X412471Y255537D01*
X413789Y256855D01*
X414374Y257868D01*
X472445D01*
X482048Y248264D01*
X481746Y247134D01*
Y245270D01*
X482228Y243469D01*
X483160Y241855D01*
X484478Y240537D01*
X486093Y239604D01*
X487893Y239122D01*
X489758D01*
X491558Y239604D01*
X493173Y240537D01*
X494491Y241855D01*
X495423Y243469D01*
X495906Y245270D01*
Y247134D01*
X495423Y248935D01*
X494491Y250549D01*
X493173Y251867D01*
X491558Y252799D01*
X489758Y253282D01*
X487893D01*
X486763Y252979D01*
X476082Y263660D01*
X475001Y264383D01*
X473725Y264637D01*
X473218Y264536D01*
X414374D01*
X413789Y265549D01*
X412471Y266867D01*
X410857Y267799D01*
X409056Y268282D01*
D02*
G37*
G36*
X688188Y246736D02*
X669188D01*
Y227736D01*
X688188D01*
Y246736D01*
D02*
G37*
G36*
X646854Y279876D02*
X644990D01*
X643189Y279394D01*
X641575Y278461D01*
X640257Y277143D01*
X639324Y275529D01*
X638842Y273728D01*
Y271864D01*
X639324Y270063D01*
X640257Y268449D01*
X641575Y267131D01*
X643189Y266199D01*
X644990Y265716D01*
X646854D01*
X647984Y266019D01*
X653510Y260493D01*
Y232310D01*
X652497Y231725D01*
X651179Y230407D01*
X650247Y228793D01*
X649764Y226992D01*
Y225128D01*
X650247Y223327D01*
X651179Y221713D01*
X652497Y220395D01*
X654111Y219463D01*
X655912Y218980D01*
X657776D01*
X659577Y219463D01*
X661191Y220395D01*
X662509Y221713D01*
X663441Y223327D01*
X663924Y225128D01*
Y226992D01*
X663441Y228793D01*
X662509Y230407D01*
X661191Y231725D01*
X660178Y232310D01*
Y261874D01*
X659924Y263150D01*
X659202Y264231D01*
X652699Y270734D01*
X653002Y271864D01*
Y273728D01*
X652520Y275529D01*
X651587Y277143D01*
X650269Y278461D01*
X648655Y279394D01*
X646854Y279876D01*
D02*
G37*
G36*
X402056Y249782D02*
X400192D01*
X398391Y249300D01*
X396777Y248367D01*
X395459Y247049D01*
X394526Y245435D01*
X394044Y243634D01*
Y241770D01*
X394526Y239969D01*
X395459Y238355D01*
X396777Y237037D01*
X397790Y236452D01*
Y218624D01*
X398044Y217348D01*
X398767Y216266D01*
X400894Y214139D01*
X400199Y212935D01*
X399716Y211134D01*
Y209270D01*
X400199Y207469D01*
X401131Y205855D01*
X402449Y204537D01*
X404063Y203605D01*
X405864Y203122D01*
X407728D01*
X409529Y203605D01*
X411143Y204537D01*
X412462Y205855D01*
X413394Y207469D01*
X413876Y209270D01*
Y211134D01*
X413394Y212935D01*
X412462Y214549D01*
X411143Y215867D01*
X409529Y216800D01*
X407728Y217282D01*
X407181D01*
X404458Y220005D01*
Y236452D01*
X405471Y237037D01*
X406789Y238355D01*
X407721Y239969D01*
X408204Y241770D01*
Y243634D01*
X407721Y245435D01*
X406789Y247049D01*
X405471Y248367D01*
X403857Y249300D01*
X402056Y249782D01*
D02*
G37*
G36*
X38202Y296012D02*
X19202D01*
Y277012D01*
X33487D01*
X38910Y271589D01*
X38091Y270612D01*
X36978Y270612D01*
X19202D01*
Y251612D01*
X38202D01*
Y269347D01*
X38202Y270501D01*
X39179Y271320D01*
X68509Y241990D01*
X69590Y241268D01*
X70866Y241014D01*
X239876D01*
X240461Y240001D01*
X241779Y238683D01*
X242759Y238117D01*
X242418Y236847D01*
X241384D01*
X239583Y236364D01*
X237969Y235432D01*
X236651Y234114D01*
X235718Y232500D01*
X235236Y230699D01*
Y228835D01*
X235718Y227034D01*
X236651Y225420D01*
X237969Y224102D01*
X238982Y223517D01*
Y158607D01*
X216946Y136571D01*
X215816Y136874D01*
X213952D01*
X212151Y136391D01*
X210537Y135459D01*
X209219Y134141D01*
X208286Y132527D01*
X207804Y130726D01*
Y128862D01*
X208286Y127061D01*
X209064Y125715D01*
X208829Y124788D01*
X208551Y124318D01*
X208351Y124278D01*
X160306Y172323D01*
Y197902D01*
X160052Y199178D01*
X159953Y199326D01*
X160632Y200596D01*
X219851D01*
X220431Y199593D01*
X221749Y198275D01*
X223363Y197342D01*
X225164Y196860D01*
X227028D01*
X228829Y197342D01*
X230443Y198275D01*
X231761Y199593D01*
X232694Y201207D01*
X233176Y203008D01*
Y204872D01*
X232694Y206673D01*
X231761Y208287D01*
X230443Y209605D01*
X228829Y210537D01*
X227028Y211020D01*
X225164D01*
X223363Y210537D01*
X221749Y209605D01*
X220431Y208287D01*
X219840Y207264D01*
X90196D01*
X89739Y208055D01*
X88421Y209373D01*
X86807Y210306D01*
X85006Y210788D01*
X83142D01*
X81341Y210306D01*
X79727Y209373D01*
X78409Y208055D01*
X77477Y206441D01*
X76994Y204640D01*
Y202776D01*
X77477Y200975D01*
X78409Y199361D01*
X79727Y198043D01*
X81341Y197111D01*
X83142Y196628D01*
X85006D01*
X86807Y197111D01*
X88421Y198043D01*
X89739Y199361D01*
X90452Y200596D01*
X98972D01*
X99458Y199423D01*
X81020Y180985D01*
X79949Y181604D01*
X78148Y182086D01*
X76284D01*
X74483Y181604D01*
X72869Y180671D01*
X71551Y179353D01*
X70619Y177739D01*
X70136Y175938D01*
Y174074D01*
X70619Y172273D01*
X71551Y170659D01*
X72869Y169341D01*
X74483Y168409D01*
X76284Y167926D01*
X78148D01*
X79949Y168409D01*
X81563Y169341D01*
X82881Y170659D01*
X83813Y172273D01*
X84296Y174074D01*
Y174831D01*
X105521Y196056D01*
X153638D01*
Y170942D01*
X153892Y169666D01*
X154614Y168584D01*
X205415Y117785D01*
X206496Y117062D01*
X207772Y116808D01*
X248994D01*
X250270Y117062D01*
X251351Y117785D01*
X266765Y133198D01*
X267938Y132712D01*
Y128889D01*
X253857Y114808D01*
X253134Y113726D01*
X252997Y113036D01*
X207401D01*
X154503Y165933D01*
X153422Y166656D01*
X152146Y166910D01*
X114808D01*
X113532Y166656D01*
X112450Y165933D01*
X101743Y155226D01*
X98607D01*
X98292Y156403D01*
X97359Y158017D01*
X96041Y159335D01*
X94427Y160268D01*
X92626Y160750D01*
X90762D01*
X88961Y160268D01*
X87347Y159335D01*
X86029Y158017D01*
X85097Y156403D01*
X84614Y154602D01*
Y152738D01*
X85097Y150937D01*
X86029Y149323D01*
X87347Y148005D01*
X88961Y147072D01*
X90762Y146590D01*
X92626D01*
X94427Y147072D01*
X96041Y148005D01*
X96595Y148558D01*
X103124D01*
X104400Y148812D01*
X105482Y149535D01*
X116189Y160242D01*
X131374D01*
Y142702D01*
X150374D01*
Y158837D01*
X151644Y159363D01*
X163952Y147055D01*
X163294Y145917D01*
X161968Y146272D01*
X160104D01*
X158303Y145789D01*
X156689Y144857D01*
X155371Y143539D01*
X154438Y141925D01*
X153956Y140124D01*
Y138260D01*
X154438Y136459D01*
X155371Y134845D01*
X156689Y133527D01*
X157702Y132942D01*
Y124206D01*
X157956Y122930D01*
X158679Y121848D01*
X206938Y73589D01*
X208020Y72866D01*
X209296Y72612D01*
X307778D01*
X309054Y72866D01*
X310135Y73589D01*
X348062Y111515D01*
X349192Y111212D01*
X351056D01*
X352857Y111694D01*
X354471Y112627D01*
X355789Y113945D01*
X356721Y115559D01*
X357204Y117360D01*
Y119224D01*
X356721Y121025D01*
X355789Y122639D01*
X354471Y123957D01*
X352857Y124889D01*
X351056Y125372D01*
X349192D01*
X347391Y124889D01*
X345777Y123957D01*
X344459Y122639D01*
X343526Y121025D01*
X343044Y119224D01*
Y117360D01*
X343347Y116230D01*
X306397Y79280D01*
X210677D01*
X164370Y125587D01*
Y132942D01*
X165383Y133527D01*
X166701Y134845D01*
X167633Y136459D01*
X168116Y138260D01*
Y140124D01*
X167761Y141450D01*
X168899Y142108D01*
X203662Y107344D01*
X204744Y106622D01*
X206020Y106368D01*
X254726D01*
X256002Y106622D01*
X257084Y107345D01*
X258571Y108832D01*
X259294Y109914D01*
X259518Y111039D01*
X273629Y125150D01*
X274352Y126232D01*
X274606Y127508D01*
Y159401D01*
X292973Y177768D01*
X304646D01*
X305231Y176755D01*
X306549Y175437D01*
X308163Y174505D01*
X309964Y174022D01*
X311828D01*
X313629Y174505D01*
X315243Y175437D01*
X316561Y176755D01*
X317493Y178369D01*
X317976Y180170D01*
Y182034D01*
X317493Y183835D01*
X316561Y185449D01*
X315243Y186767D01*
X313629Y187700D01*
X311828Y188182D01*
X309964D01*
X308163Y187700D01*
X306549Y186767D01*
X305231Y185449D01*
X304646Y184436D01*
X291592D01*
X290316Y184182D01*
X289235Y183459D01*
X268915Y163139D01*
X268192Y162058D01*
X267938Y160782D01*
Y154982D01*
X266765Y154496D01*
X265716Y155544D01*
Y163676D01*
X266729Y164261D01*
X268047Y165579D01*
X268979Y167193D01*
X269462Y168994D01*
Y170858D01*
X268979Y172659D01*
X268047Y174273D01*
X266729Y175591D01*
X265115Y176523D01*
X263314Y177006D01*
X261450D01*
X259649Y176523D01*
X258035Y175591D01*
X256717Y174273D01*
X255784Y172659D01*
X255728Y172448D01*
X254458Y172615D01*
Y177750D01*
X262761Y186052D01*
X263027Y185787D01*
X264641Y184855D01*
X266442Y184372D01*
X268306D01*
X270107Y184855D01*
X271721Y185787D01*
X273039Y187105D01*
X273972Y188719D01*
X274454Y190520D01*
Y192384D01*
X273972Y194185D01*
X273039Y195799D01*
X271721Y197117D01*
X270107Y198050D01*
X268306Y198532D01*
X266442D01*
X264641Y198050D01*
X263027Y197117D01*
X261709Y195799D01*
X260777Y194185D01*
X260356Y192614D01*
X260225Y192588D01*
X259144Y191866D01*
X255786Y188508D01*
X255786Y188507D01*
X248766Y181488D01*
X248044Y180407D01*
X247790Y179131D01*
Y142702D01*
X246777Y142117D01*
X245459Y140799D01*
X244527Y139185D01*
X244044Y137384D01*
Y135520D01*
X244527Y133719D01*
X245459Y132105D01*
X246777Y130787D01*
X248391Y129854D01*
X250192Y129372D01*
X251713D01*
X252234Y128465D01*
X252294Y128157D01*
X247613Y123476D01*
X220375D01*
X219849Y124746D01*
X220549Y125447D01*
X221481Y127061D01*
X221964Y128862D01*
Y130726D01*
X221661Y131856D01*
X244674Y154868D01*
X245396Y155950D01*
X245650Y157226D01*
Y223517D01*
X246663Y224102D01*
X247981Y225420D01*
X248913Y227034D01*
X249396Y228835D01*
Y230699D01*
X248913Y232500D01*
X247981Y234114D01*
X246663Y235432D01*
X245683Y235998D01*
X246024Y237268D01*
X247058D01*
X248859Y237750D01*
X250473Y238683D01*
X251791Y240001D01*
X252724Y241615D01*
X253206Y243416D01*
Y245280D01*
X252724Y247081D01*
X251791Y248695D01*
X250473Y250013D01*
X248859Y250945D01*
X247058Y251428D01*
X245194D01*
X243393Y250945D01*
X241779Y250013D01*
X240461Y248695D01*
X239876Y247682D01*
X72247D01*
X38202Y281727D01*
Y296012D01*
D02*
G37*
G36*
X150374Y136302D02*
X131374D01*
Y117302D01*
X150374D01*
Y136302D01*
D02*
G37*
G36*
X394306Y121782D02*
X392442D01*
X390641Y121299D01*
X389027Y120367D01*
X387709Y119049D01*
X386777Y117435D01*
X386294Y115634D01*
Y113770D01*
X386597Y112640D01*
X309549Y35592D01*
X156246D01*
X154970Y35338D01*
X153889Y34615D01*
X149001Y29728D01*
X134716D01*
Y10728D01*
X153716D01*
Y25013D01*
X157627Y28924D01*
X310930D01*
X312206Y29178D01*
X313288Y29901D01*
X391312Y107925D01*
X392442Y107622D01*
X394306D01*
X396107Y108104D01*
X397721Y109037D01*
X399039Y110355D01*
X399972Y111969D01*
X400454Y113770D01*
Y115634D01*
X399972Y117435D01*
X399039Y119049D01*
X397721Y120367D01*
X396107Y121299D01*
X394306Y121782D01*
D02*
G37*
G36*
X423041Y170766D02*
X422261Y170611D01*
X421599Y170169D01*
X421599Y170169D01*
X415884Y164454D01*
X415442Y163792D01*
X415287Y163012D01*
Y157932D01*
X415309Y157823D01*
X415299Y157711D01*
X415386Y157435D01*
X415442Y157152D01*
X415504Y157059D01*
X415537Y156952D01*
X433063Y124949D01*
X433136Y124862D01*
X433181Y124759D01*
X433389Y124559D01*
X433574Y124339D01*
X433674Y124286D01*
X433756Y124208D01*
X473821Y98667D01*
X474050Y98324D01*
X474712Y97882D01*
X475492Y97727D01*
X486160D01*
X514436Y97727D01*
X514745Y97788D01*
X515058Y97824D01*
X515133Y97865D01*
X515216Y97882D01*
X515479Y98057D01*
X515754Y98210D01*
X548465Y125920D01*
X553893Y127450D01*
X553948Y127479D01*
X554010Y127487D01*
X554301Y127658D01*
X554602Y127812D01*
X554642Y127859D01*
X554696Y127890D01*
X575197Y146156D01*
X594916Y149113D01*
X595139Y149193D01*
X595371Y149237D01*
X595510Y149327D01*
X595665Y149383D01*
X595840Y149542D01*
X596038Y149671D01*
X596132Y149807D01*
X596254Y149918D01*
X596355Y150132D01*
X596488Y150327D01*
X600298Y159217D01*
X600301Y159229D01*
X600308Y159240D01*
X600383Y159618D01*
X600463Y159995D01*
X600461Y160008D01*
X600463Y160020D01*
Y161985D01*
X600459Y162006D01*
X600463Y162027D01*
X600382Y162395D01*
X600308Y162766D01*
X600296Y162783D01*
X600292Y162804D01*
X598260Y167442D01*
X598044Y167751D01*
X597834Y168066D01*
X597817Y168078D01*
X597804Y168095D01*
X597487Y168298D01*
X597172Y168508D01*
X597152Y168512D01*
X597134Y168523D01*
X596762Y168589D01*
X596392Y168663D01*
X576580D01*
X576580Y168663D01*
X575800Y168508D01*
X575138Y168066D01*
X572889Y165817D01*
X544978Y140672D01*
X511648Y125991D01*
X483356Y125991D01*
X440817Y170142D01*
X440802Y170153D01*
X440791Y170169D01*
X440475Y170380D01*
X440164Y170596D01*
X440145Y170600D01*
X440129Y170611D01*
X439758Y170685D01*
X439387Y170766D01*
X439368Y170762D01*
X439349Y170766D01*
X423041D01*
X423041Y170766D01*
D02*
G37*
G36*
X150374Y110902D02*
X131374D01*
Y91902D01*
X150374D01*
Y110902D01*
D02*
G37*
G36*
X674859Y100686D02*
X672357D01*
X669941Y100039D01*
X667775Y98788D01*
X666006Y97019D01*
X664755Y94853D01*
X664108Y92437D01*
Y89935D01*
X664755Y87519D01*
X666006Y85353D01*
X667775Y83584D01*
X669941Y82333D01*
X672357Y81686D01*
X674859D01*
X677275Y82333D01*
X679441Y83584D01*
X681210Y85353D01*
X682461Y87519D01*
X683108Y89935D01*
Y92437D01*
X682461Y94853D01*
X681210Y97019D01*
X679441Y98788D01*
X677275Y100039D01*
X674859Y100686D01*
D02*
G37*
G36*
X36170Y84176D02*
X17170D01*
Y65176D01*
X36170D01*
Y84176D01*
D02*
G37*
G36*
Y58776D02*
X17170D01*
Y39776D01*
X36170D01*
Y58776D01*
D02*
G37*
G36*
X153716Y55128D02*
X134716D01*
Y36128D01*
X153716D01*
Y55128D01*
D02*
G37*
G36*
X128316D02*
X109316D01*
Y36128D01*
X128316D01*
Y55128D01*
D02*
G37*
G36*
Y29728D02*
X109316D01*
Y10728D01*
X128316D01*
Y29728D01*
D02*
G37*
G36*
X669147Y45376D02*
X665601D01*
X662124Y44684D01*
X658848Y43327D01*
X655900Y41358D01*
X653393Y38850D01*
X651423Y35902D01*
X650066Y32627D01*
X649374Y29149D01*
Y25603D01*
X650066Y22126D01*
X651423Y18850D01*
X653393Y15902D01*
X655900Y13395D01*
X658848Y11425D01*
X662124Y10068D01*
X665601Y9376D01*
X669147D01*
X672625Y10068D01*
X675900Y11425D01*
X678848Y13395D01*
X681356Y15902D01*
X683326Y18850D01*
X684682Y22126D01*
X685374Y25603D01*
Y29149D01*
X684682Y32627D01*
X683326Y35902D01*
X681356Y38850D01*
X678848Y41358D01*
X675900Y43327D01*
X672625Y44684D01*
X669147Y45376D01*
D02*
G37*
G36*
X75691Y45376D02*
X72145D01*
X68668Y44684D01*
X65392Y43327D01*
X62444Y41357D01*
X59937Y38850D01*
X57967Y35902D01*
X56610Y32626D01*
X55918Y29149D01*
Y25603D01*
X56610Y22126D01*
X57967Y18850D01*
X59937Y15902D01*
X62444Y13395D01*
X65392Y11425D01*
X68668Y10068D01*
X72145Y9376D01*
X75691D01*
X79169Y10068D01*
X82444Y11425D01*
X85392Y13395D01*
X87900Y15902D01*
X89869Y18850D01*
X91226Y22126D01*
X91918Y25603D01*
Y29149D01*
X91226Y32626D01*
X89869Y35902D01*
X87900Y38850D01*
X85392Y41357D01*
X82444Y43327D01*
X79169Y44684D01*
X75691Y45376D01*
D02*
G37*
G36*
X307446Y27478D02*
X288446D01*
Y8478D01*
X307446D01*
Y27478D01*
D02*
G37*
G36*
X282046D02*
X263046D01*
Y8478D01*
X282046D01*
Y27478D01*
D02*
G37*
G36*
X256646D02*
X237646D01*
Y8478D01*
X256646D01*
Y27478D01*
D02*
G37*
%LPD*%
G36*
X255784Y167193D02*
X256717Y165579D01*
X258035Y164261D01*
X259048Y163676D01*
Y154163D01*
X259302Y152888D01*
X260025Y151806D01*
X262858Y148972D01*
Y138721D01*
X259419Y135282D01*
X259111Y135342D01*
X258204Y135863D01*
Y137384D01*
X257722Y139185D01*
X256789Y140799D01*
X255471Y142117D01*
X254458Y142702D01*
Y167237D01*
X255728Y167404D01*
X255784Y167193D01*
D02*
G37*
G36*
X482489Y123952D02*
X512078Y123952D01*
X546100Y138938D01*
X574294Y164338D01*
X576580Y166624D01*
X596392D01*
X598424Y161985D01*
Y161036D01*
Y160528D01*
Y160020D01*
X594614Y151130D01*
X574294Y148082D01*
X553339Y129413D01*
X547485Y127762D01*
X514436Y99766D01*
X486160Y99766D01*
X475492D01*
Y100020D01*
X434852Y125928D01*
X417326Y157932D01*
Y163012D01*
X423041Y168727D01*
X439349D01*
X482489Y123952D01*
D02*
G37*
D15*
X656844Y226060D02*
Y261874D01*
X645922Y272796D02*
X656844Y261874D01*
X226086Y203930D02*
X226096Y203940D01*
X84074Y203708D02*
X84296Y203930D01*
X226086D01*
X79756Y175006D02*
X104140Y199390D01*
X77216Y175006D02*
X79756D01*
X104140Y199390D02*
X155484D01*
X207772Y120142D02*
X248994D01*
X156972Y170942D02*
X207772Y120142D01*
X156972Y170942D02*
Y197902D01*
X104648Y261366D02*
X248412D01*
X30607Y335407D02*
X104648Y261366D01*
X28702Y286512D02*
X70866Y244348D01*
X246126D01*
X242316Y157226D02*
Y229767D01*
X214884Y129794D02*
X242316Y157226D01*
X153416Y280924D02*
X271002D01*
X276102Y275824D01*
X103124Y151892D02*
X114808Y163576D01*
X91694Y153670D02*
X93472Y151892D01*
X103124D01*
X114808Y163576D02*
X152146D01*
X206020Y109702D01*
X254726D01*
X161036Y124206D02*
X209296Y75946D01*
X161036Y124206D02*
Y139192D01*
X209296Y75946D02*
X307778D01*
X155484Y199390D02*
X156972Y197902D01*
X256214Y111190D02*
Y112450D01*
X254726Y109702D02*
X256214Y111190D01*
X271272Y127508D02*
Y160782D01*
X256214Y112450D02*
X271272Y127508D01*
Y160782D02*
X291592Y181102D01*
X310896D01*
X262382Y154163D02*
Y169926D01*
Y154163D02*
X266192Y150353D01*
Y137340D02*
Y150353D01*
X248994Y120142D02*
X266192Y137340D01*
X307778Y75946D02*
X350124Y118292D01*
X156246Y32258D02*
X310930D01*
X144216Y20228D02*
X156246Y32258D01*
X310930D02*
X393374Y114702D01*
X251124Y179131D02*
X258143Y186150D01*
X251124Y136452D02*
Y179131D01*
X265430Y189508D02*
X267374Y191452D01*
X261501Y189508D02*
X265430D01*
X258143Y186150D02*
X258143D01*
X261501Y189508D01*
X276102Y215336D02*
Y275824D01*
Y215336D02*
X294644Y196794D01*
X313966D01*
X372874Y255702D01*
X473725Y261303D02*
X488826Y246202D01*
X473624Y261202D02*
X473725Y261303D01*
X408124Y261202D02*
X473624D01*
X406796Y210202D02*
Y212951D01*
X401124Y218624D02*
X406796Y212951D01*
X401124Y218624D02*
Y242702D01*
D61*
X678688Y237236D02*
D03*
X673608Y65786D02*
D03*
X26670Y49276D02*
D03*
Y74676D02*
D03*
X28702Y337312D02*
D03*
Y311912D02*
D03*
Y286512D02*
D03*
Y261112D02*
D03*
X140874Y101402D02*
D03*
Y126802D02*
D03*
Y152202D02*
D03*
Y177602D02*
D03*
D62*
X678688Y211836D02*
D03*
X673608Y91186D02*
D03*
D63*
X503428Y345948D02*
D03*
X528828D02*
D03*
X251972Y344114D02*
D03*
X226572D02*
D03*
X201172D02*
D03*
X175772D02*
D03*
X311150Y343408D02*
D03*
X336550D02*
D03*
X361950D02*
D03*
X387350D02*
D03*
X323346Y17978D02*
D03*
X297946D02*
D03*
X272546D02*
D03*
X247146D02*
D03*
X169616Y45628D02*
D03*
Y20228D02*
D03*
X144216Y45628D02*
D03*
Y20228D02*
D03*
X118816Y45628D02*
D03*
Y20228D02*
D03*
D64*
X561844Y349758D02*
D03*
X574294D02*
D03*
D65*
X73918Y345384D02*
D03*
X667374Y27376D02*
D03*
X667374Y345384D02*
D03*
D66*
X73918Y27376D02*
D03*
D67*
X656844Y226060D02*
D03*
X645922Y272796D02*
D03*
X589534Y157988D02*
D03*
X478624Y114702D02*
D03*
X226096Y203940D02*
D03*
X77216Y175006D02*
D03*
X309626Y210820D02*
D03*
X339852Y299974D02*
D03*
X248412Y261366D02*
D03*
X246126Y244348D02*
D03*
X242316Y229767D02*
D03*
X84074Y203708D02*
D03*
X153416Y280924D02*
D03*
X91694Y153670D02*
D03*
X161036Y139192D02*
D03*
X262382Y169926D02*
D03*
X214884Y129794D02*
D03*
X310896Y181102D02*
D03*
X267374Y191452D02*
D03*
X408944Y291028D02*
D03*
X350124Y118292D02*
D03*
X372874Y255702D02*
D03*
X427624Y159952D02*
D03*
X408124Y261202D02*
D03*
X401124Y242702D02*
D03*
X251124Y136452D02*
D03*
X424624Y274202D02*
D03*
X233172Y134366D02*
D03*
X488826Y246202D02*
D03*
X406796Y210202D02*
D03*
X393374Y114702D02*
D03*
M02*
